<svg width="41" height="106" viewBox="0 0 41 106" fill="none" xmlns="http://www.w3.org/2000/svg">
<path d="M7.13867 98.793C6.79883 98.793 6.55273 98.8223 6.40039 98.8809C6.24805 98.9277 6.10742 98.9512 5.97852 98.9512C5.80273 98.9512 5.65625 98.8574 5.53906 98.6699C5.42187 98.4824 5.36328 98.2598 5.36328 98.002C5.36328 97.4043 5.52148 96.9238 5.83789 96.5605C6.14258 96.1855 6.51758 95.998 6.96289 95.998H18.7227C18.6406 95.541 18.5 95.043 18.3008 94.5039C18.1016 93.9531 17.8379 93.4082 17.5098 92.8691C17.1699 92.3184 16.7598 91.791 16.2793 91.2871C15.7988 90.7715 15.2363 90.3203 14.5918 89.9336C13.9473 89.5352 13.2207 89.2188 12.4121 88.9844C11.5918 88.7383 10.6719 88.6152 9.65234 88.6152C8.97266 88.6152 8.26953 88.7324 7.54297 88.9668C6.81641 89.1895 6.1543 89.541 5.55664 90.0215C4.95898 90.502 4.4668 91.123 4.08008 91.8848C3.69336 92.6348 3.5 93.5371 3.5 94.5918C3.5 95.9746 3.72852 97.1699 4.18555 98.1777C4.64258 99.1855 5.25781 100.018 6.03125 100.674C6.79297 101.33 7.66602 101.816 8.65039 102.133C9.63477 102.449 10.6543 102.607 11.709 102.607C12.5059 102.607 13.1797 102.543 13.7305 102.414C14.2695 102.273 14.7148 102.121 15.0664 101.957C15.4062 101.793 15.6582 101.641 15.8223 101.5C15.9863 101.359 16.0801 101.277 16.1035 101.254C16.0449 101.055 16.0684 100.914 16.1738 100.832C16.2793 100.75 16.4199 100.709 16.5957 100.709C16.7598 100.709 17.0059 100.768 17.334 100.885C17.6621 100.99 17.9727 101.137 18.2656 101.324C18.5469 101.512 18.7637 101.729 18.916 101.975C19.0566 102.221 19.0273 102.473 18.8281 102.73C18.6992 102.871 18.4648 103.088 18.125 103.381C17.7852 103.674 17.334 103.967 16.7715 104.26C16.1973 104.541 15.5117 104.793 14.7148 105.016C13.9062 105.238 12.9746 105.35 11.9199 105.35C10.2559 105.35 8.74414 105.092 7.38477 104.576C6.01367 104.061 4.8418 103.334 3.86914 102.396C2.88477 101.447 2.12891 100.316 1.60156 99.0039C1.0625 97.6914 0.792969 96.2324 0.792969 94.627C0.792969 93.3145 1.00977 92.1191 1.44336 91.041C1.87695 89.9629 2.48633 89.0371 3.27148 88.2637C4.04492 87.4902 4.9707 86.8926 6.04883 86.4707C7.12695 86.0488 8.30469 85.8379 9.58203 85.8379C10.8125 85.8379 11.9668 86.0195 13.0449 86.3828C14.123 86.7344 15.1074 87.2207 15.998 87.8418C16.8887 88.4629 17.6797 89.1895 18.3711 90.0215C19.0625 90.8418 19.625 91.7266 20.0586 92.6758C20.3984 92.0781 20.8145 91.5859 21.3066 91.1992C21.7871 90.8008 22.3086 90.4668 22.8711 90.1973C23.4219 89.916 24.002 89.6758 24.6113 89.4766C25.2207 89.2656 25.8184 89.0547 26.4043 88.8438C27.002 88.6328 27.5762 88.3926 28.127 88.123C28.6777 87.8535 29.1699 87.5137 29.6035 87.1035C29.6621 87.0566 29.7031 86.998 29.7266 86.9277C29.7617 86.8457 29.791 86.7695 29.8145 86.6992C29.8496 86.6172 29.8848 86.5527 29.9199 86.5059C29.9668 86.4473 30.0254 86.418 30.0957 86.418C30.2715 86.418 30.4648 86.5176 30.6758 86.7168C30.8984 86.916 31.1035 87.1504 31.291 87.4199C31.4902 87.6895 31.6543 87.9648 31.7832 88.2461C31.9121 88.5156 31.9766 88.7207 31.9766 88.8613C31.9766 89.0371 31.9062 89.1953 31.7656 89.3359C31.0977 89.9219 30.4004 90.3789 29.6738 90.707C28.959 91.0352 28.2441 91.3105 27.5293 91.5332C26.8262 91.7559 26.1406 91.9609 25.4727 92.1484C24.8047 92.3359 24.1895 92.582 23.627 92.8867C23.0645 93.1797 22.5723 93.5664 22.1504 94.0469C21.7285 94.5273 21.4062 95.1777 21.1836 95.998H26.1758C26.4805 95.998 26.6914 96.0977 26.8086 96.2969C26.9375 96.4961 27.002 96.7305 27.002 97C27.002 97.2109 26.9727 97.4219 26.9141 97.6328C26.8555 97.8438 26.7793 98.0371 26.6855 98.2129C26.5918 98.377 26.4805 98.5176 26.3516 98.6348C26.2344 98.7402 26.1055 98.793 25.9648 98.793H7.13867ZM15.5234 73.3209C16.1914 73.3209 16.877 73.438 17.5801 73.6724C18.2832 73.8951 18.9512 74.2349 19.584 74.692C20.2051 75.1373 20.7676 75.6939 21.2715 76.3619C21.7637 77.0181 22.1387 77.7798 22.3965 78.647C22.7012 78.5298 22.9941 78.3775 23.2754 78.19C23.5449 77.9908 23.7793 77.7564 23.9785 77.4869C24.1777 77.2173 24.3359 76.9068 24.4531 76.5552C24.5703 76.192 24.6289 75.7759 24.6289 75.3072C24.6289 74.6041 24.5 74.0005 24.2422 73.4966C23.9727 72.9927 23.6211 72.5709 23.1875 72.231C22.7539 71.8795 22.2676 71.5982 21.7285 71.3873C21.1895 71.1763 20.6445 71.0181 20.0938 70.9127C19.6953 70.8306 19.4316 70.6666 19.3027 70.4205C19.1621 70.1627 19.127 69.9048 19.1973 69.647C19.2676 69.3775 19.4199 69.149 19.6543 68.9615C19.877 68.7623 20.1465 68.6802 20.4629 68.7154C20.8262 68.7623 21.2422 68.8443 21.7109 68.9615C22.1797 69.067 22.6543 69.231 23.1348 69.4537C23.6152 69.6763 24.0898 69.9634 24.5586 70.315C25.0156 70.6548 25.4258 71.0767 25.7891 71.5806C26.1523 72.0845 26.4453 72.6763 26.668 73.356C26.8906 74.0357 27.002 74.815 27.002 75.6939C27.002 76.5142 26.8379 77.3111 26.5098 78.0845C26.1934 78.8463 25.7363 79.5259 25.1387 80.1236C24.5293 80.7095 23.7852 81.1841 22.9062 81.5474C22.0156 81.899 21.0078 82.0748 19.8828 82.0748C18.7461 82.0748 17.6914 81.9166 16.7188 81.6002C15.7344 81.2838 14.8848 80.8677 14.1699 80.3521C13.4551 79.8365 12.8984 79.2505 12.5 78.5943C12.0898 77.938 11.8848 77.2642 11.8848 76.5728C11.8848 76.0689 11.9727 75.6177 12.1484 75.2193C12.3242 74.8091 12.5762 74.4634 12.9043 74.1822C13.2207 73.9009 13.6016 73.69 14.0469 73.5494C14.4922 73.397 14.9844 73.3209 15.5234 73.3209ZM19.7773 79.1216C19.8828 79.1216 19.9883 79.1158 20.0938 79.1041C20.1992 79.0923 20.3105 79.0865 20.4277 79.0865C20.2168 78.6412 19.9473 78.2369 19.6191 77.8736C19.291 77.5103 18.916 77.1998 18.4941 76.942C18.0723 76.6841 17.6152 76.4849 17.123 76.3443C16.6191 76.2037 16.0977 76.1334 15.5586 76.1334C15.1602 76.1334 14.8496 76.2037 14.627 76.3443C14.4043 76.4732 14.293 76.6548 14.293 76.8892C14.293 77.1822 14.3926 77.4459 14.5918 77.6802C14.791 77.9029 15.0547 78.1021 15.3828 78.2779C15.6992 78.442 16.0625 78.5826 16.4727 78.6998C16.8711 78.8052 17.2754 78.8931 17.6855 78.9634C18.0957 79.0338 18.4883 79.0806 18.8633 79.1041C19.2266 79.1275 19.5312 79.1334 19.7773 79.1216ZM21.0605 65.8136C21.4355 65.9073 21.6699 66.0831 21.7637 66.3409C21.8457 66.5988 21.834 66.8566 21.7285 67.1144C21.623 67.3605 21.4414 67.5714 21.1836 67.7472C20.9258 67.9113 20.6445 67.9581 20.3398 67.8878C19.543 67.712 18.6641 67.4601 17.7031 67.132C16.7305 66.7921 15.7637 66.4581 14.8027 66.13C14.5332 66.3058 14.2637 66.4464 13.9941 66.5519C13.7129 66.6573 13.4199 66.7101 13.1152 66.7101C12.8105 66.7101 12.4941 66.5988 12.166 66.3761C11.8262 66.1417 11.5156 65.8663 11.2344 65.5499C10.9531 65.2218 10.7246 64.8878 10.5488 64.548C10.3613 64.1964 10.2676 63.8976 10.2676 63.6515C10.2676 63.2179 10.4141 62.8956 10.707 62.6847C11 62.462 11.3926 62.3507 11.8848 62.3507C12.1543 62.3507 12.4238 62.3976 12.6934 62.4913C12.9512 62.5734 13.1973 62.6671 13.4316 62.7726C13.6543 62.878 13.8477 62.9777 14.0117 63.0714C14.1758 63.1534 14.2813 63.2003 14.3281 63.212C15.0781 62.7902 15.7402 62.3507 16.3145 61.8937C16.8887 61.4366 17.457 61.0206 18.0195 60.6456C18.582 60.2589 19.1797 59.9425 19.8125 59.6964C20.4453 59.4503 21.1895 59.3273 22.0449 59.3273C22.2559 59.3273 22.4727 59.3448 22.6953 59.38C22.918 59.4034 23.1289 59.4445 23.3281 59.503C23.2461 59.0812 23.1172 58.712 22.9414 58.3956C22.7656 58.0675 22.5664 57.7863 22.3438 57.5519C22.1094 57.3058 21.8574 57.1066 21.5879 56.9542C21.3184 56.7902 21.0371 56.6554 20.7441 56.5499C20.4043 56.421 20.1582 56.2921 20.0059 56.1632C19.8535 56.0343 19.7773 55.8878 19.7773 55.7238C19.7773 55.5714 19.8301 55.4191 19.9355 55.2667C20.0293 55.1027 20.1523 54.962 20.3047 54.8448C20.457 54.7159 20.6152 54.6163 20.7793 54.546C20.9434 54.464 21.0898 54.423 21.2188 54.423C21.3945 54.423 21.6055 54.4698 21.8516 54.5636C22.0977 54.6573 22.3496 54.7863 22.6074 54.9503C22.8652 55.1027 23.1172 55.2784 23.3633 55.4777C23.5977 55.6769 23.8027 55.882 23.9785 56.0929C24.4355 56.6554 24.8223 57.3175 25.1387 58.0792C25.4434 58.8409 25.6367 59.7843 25.7188 60.9093C26.0938 61.3429 26.3984 61.8585 26.6328 62.4562C26.8789 63.0421 27.002 63.7042 27.002 64.4425C27.002 64.8175 26.9551 65.2042 26.8613 65.6027C26.7676 65.9894 26.6445 66.3644 26.4922 66.7277C26.3516 67.0792 26.1934 67.4015 26.0176 67.6945C25.8418 67.9874 25.666 68.2218 25.4902 68.3976C25.0684 68.8429 24.6465 69.13 24.2246 69.2589C23.791 69.3878 23.4043 69.4171 23.0645 69.3468C22.7246 69.2882 22.4492 69.1652 22.2383 68.9777C22.0156 68.7902 21.9043 68.5968 21.9043 68.3976C21.9043 68.2804 21.957 68.0988 22.0625 67.8527C22.1563 67.5948 22.2852 67.3019 22.4492 66.9738C22.6016 66.6456 22.7656 66.2882 22.9414 65.9015C23.1172 65.5148 23.2871 65.128 23.4512 64.7413C23.6035 64.3546 23.7324 63.9796 23.8379 63.6163C23.9316 63.2413 23.9785 62.9015 23.9785 62.5968C23.7441 62.3976 23.4336 62.2159 23.0469 62.0519C22.6602 61.8878 22.2383 61.8058 21.7813 61.8058C21.2188 61.8058 20.6973 61.882 20.2168 62.0343C19.7363 62.1866 19.291 62.3859 18.8809 62.632C18.4707 62.878 18.0898 63.1593 17.7383 63.4757C17.375 63.7804 17.0352 64.0909 16.7188 64.4073C17.4102 64.6886 18.0957 64.9347 18.7754 65.1456C19.4434 65.3566 20.2051 65.5792 21.0605 65.8136ZM15.5234 45.0173C16.1914 45.0173 16.877 45.1345 17.5801 45.3688C18.2832 45.5915 18.9512 45.9313 19.584 46.3884C20.2051 46.8337 20.7676 47.3903 21.2715 48.0583C21.7637 48.7145 22.1387 49.4762 22.3965 50.3434C22.7012 50.2262 22.9941 50.0739 23.2754 49.8864C23.5449 49.6872 23.7793 49.4528 23.9785 49.1833C24.1777 48.9137 24.3359 48.6032 24.4531 48.2516C24.5703 47.8884 24.6289 47.4723 24.6289 47.0036C24.6289 46.3005 24.5 45.697 24.2422 45.193C23.9727 44.6891 23.6211 44.2673 23.1875 43.9274C22.7539 43.5759 22.2676 43.2946 21.7285 43.0837C21.1895 42.8727 20.6445 42.7145 20.0938 42.6091C19.6953 42.527 19.4316 42.363 19.3027 42.1169C19.1621 41.8591 19.127 41.6012 19.1973 41.3434C19.2676 41.0739 19.4199 40.8454 19.6543 40.6579C19.877 40.4587 20.1465 40.3766 20.4629 40.4118C20.8262 40.4587 21.2422 40.5407 21.7109 40.6579C22.1797 40.7634 22.6543 40.9274 23.1348 41.1501C23.6152 41.3727 24.0898 41.6598 24.5586 42.0114C25.0156 42.3512 25.4258 42.7731 25.7891 43.277C26.1523 43.7809 26.4453 44.3727 26.668 45.0524C26.8906 45.7321 27.002 46.5114 27.002 47.3903C27.002 48.2106 26.8379 49.0075 26.5098 49.7809C26.1934 50.5427 25.7363 51.2223 25.1387 51.82C24.5293 52.4059 23.7852 52.8805 22.9063 53.2438C22.0156 53.5954 21.0078 53.7712 19.8828 53.7712C18.7461 53.7712 17.6914 53.613 16.7188 53.2966C15.7344 52.9802 14.8848 52.5641 14.1699 52.0485C13.4551 51.5329 12.8984 50.947 12.5 50.2907C12.0898 49.6345 11.8848 48.9606 11.8848 48.2692C11.8848 47.7653 11.9727 47.3141 12.1484 46.9157C12.3242 46.5055 12.5762 46.1598 12.9043 45.8786C13.2207 45.5973 13.6016 45.3864 14.0469 45.2458C14.4922 45.0934 14.9844 45.0173 15.5234 45.0173ZM19.7773 50.818C19.8828 50.818 19.9883 50.8122 20.0938 50.8005C20.1992 50.7887 20.3105 50.7829 20.4277 50.7829C20.2168 50.3376 19.9473 49.9333 19.6191 49.57C19.291 49.2067 18.916 48.8962 18.4941 48.6384C18.0723 48.3805 17.6152 48.1813 17.123 48.0407C16.6191 47.9001 16.0977 47.8298 15.5586 47.8298C15.1602 47.8298 14.8496 47.9001 14.627 48.0407C14.4043 48.1696 14.293 48.3512 14.293 48.5856C14.293 48.8786 14.3926 49.1423 14.5918 49.3766C14.791 49.5993 15.0547 49.7985 15.3828 49.9743C15.6992 50.1384 16.0625 50.279 16.4727 50.3962C16.8711 50.5016 17.2754 50.5895 17.6855 50.6598C18.0957 50.7302 18.4883 50.777 18.8633 50.8005C19.2266 50.8239 19.5313 50.8298 19.7773 50.818ZM27.3711 35.0842C27.3711 35.5295 27.3184 35.8928 27.2129 36.1741C27.1191 36.4553 26.9902 36.6721 26.8262 36.8245H38.5332C38.8613 36.8245 39.125 36.8889 39.3242 37.0178C39.5352 37.1467 39.6992 37.3108 39.8164 37.51C39.9336 37.6975 40.0098 37.9026 40.0449 38.1252C40.0918 38.3479 40.1152 38.5471 40.1152 38.7229C40.1152 39.0862 40.0215 39.3147 39.834 39.4084C39.6465 39.5022 39.418 39.5491 39.1484 39.5491H14.0117C13.7539 39.5491 13.5488 39.5725 13.3965 39.6194C13.2441 39.6545 13.127 39.6955 13.0449 39.7424C12.9512 39.7776 12.8809 39.8186 12.834 39.8655C12.7754 39.9006 12.7109 39.9182 12.6406 39.9182C12.582 39.9182 12.5293 39.883 12.4824 39.8127C12.4355 39.7424 12.3945 39.6487 12.3594 39.5315C12.3242 39.4143 12.3008 39.2913 12.2891 39.1623C12.2656 39.0217 12.2539 38.887 12.2539 38.758C12.2539 38.1838 12.4121 37.7268 12.7285 37.387C13.0332 37.0354 13.3906 36.8479 13.8008 36.8245C13.25 36.4495 12.793 35.9983 12.4297 35.4709C12.0664 34.9436 11.8848 34.2991 11.8848 33.5373C11.8848 32.8342 12.0488 32.2248 12.377 31.7092C12.7051 31.1819 13.1563 30.7483 13.7305 30.4084C14.293 30.0569 14.9609 29.7991 15.7344 29.635C16.5078 29.4592 17.3398 29.3713 18.2305 29.3713C19.2383 29.3713 20.2051 29.4592 21.1309 29.635C22.0449 29.8108 22.8301 30.0334 23.4863 30.303C23.4512 29.7053 23.3691 29.2131 23.2402 28.8264C23.1113 28.4397 22.9355 28.1174 22.7129 27.8596C22.4785 27.5901 22.1973 27.3616 21.8691 27.1741C21.541 26.9748 21.166 26.7698 20.7441 26.5588C20.4043 26.3948 20.1582 26.26 20.0059 26.1545C19.8535 26.0373 19.7773 25.8967 19.7773 25.7327C19.7773 25.5803 19.8242 25.428 19.918 25.2756C20.0117 25.1116 20.1289 24.9709 20.2695 24.8538C20.4102 24.7248 20.5625 24.6252 20.7266 24.5549C20.8789 24.4729 21.0195 24.4319 21.1484 24.4319C21.5586 24.4319 22.0273 24.5725 22.5547 24.8538C23.082 25.135 23.5801 25.5686 24.0488 26.1545C24.5176 26.7288 24.916 27.4612 25.2441 28.3518C25.5605 29.2307 25.7188 30.2678 25.7188 31.4631C26.2461 31.9553 26.6504 32.5237 26.9316 33.1682C27.2246 33.8127 27.3711 34.4514 27.3711 35.0842ZM14.293 34.4514C14.293 34.7092 14.3691 34.9612 14.5215 35.2073C14.6738 35.4416 14.8848 35.6643 15.1543 35.8752C15.4121 36.0862 15.7285 36.2737 16.1035 36.4377C16.4785 36.5901 16.8828 36.719 17.3164 36.8245H25.1035C24.7285 36.5666 24.4414 36.1448 24.2422 35.5588C24.043 34.9729 23.9082 34.2639 23.8379 33.4319C23.5215 33.2209 23.1465 33.0393 22.7129 32.887C22.2676 32.7229 21.8105 32.5881 21.3418 32.4827C20.873 32.3772 20.416 32.301 19.9707 32.2541C19.5254 32.1955 19.1328 32.1663 18.793 32.1663C17.9727 32.1663 17.2754 32.2307 16.7012 32.3596C16.127 32.4768 15.6641 32.6409 15.3125 32.8518C14.9492 33.0627 14.6914 33.3088 14.5391 33.5901C14.375 33.8596 14.293 34.1467 14.293 34.4514ZM21.0605 21.4422C21.4355 21.5359 21.6699 21.7117 21.7637 21.9695C21.8457 22.2273 21.834 22.4852 21.7285 22.743C21.623 22.9891 21.4414 23.2 21.1836 23.3758C20.9258 23.5398 20.6445 23.5867 20.3398 23.5164C19.543 23.3406 18.6641 23.0887 17.7031 22.7605C16.7305 22.4207 15.7637 22.0867 14.8027 21.7586C14.5332 21.9344 14.2637 22.075 13.9941 22.1805C13.7129 22.2859 13.4199 22.3387 13.1152 22.3387C12.8105 22.3387 12.4941 22.2273 12.166 22.0047C11.8262 21.7703 11.5156 21.4949 11.2344 21.1785C10.9531 20.8504 10.7246 20.5164 10.5488 20.1766C10.3613 19.825 10.2676 19.5262 10.2676 19.2801C10.2676 18.8465 10.4141 18.5242 10.707 18.3133C11 18.0906 11.3926 17.9793 11.8848 17.9793C12.1543 17.9793 12.4238 18.0262 12.6934 18.1199C12.9512 18.202 13.1973 18.2957 13.4316 18.4012C13.6543 18.5066 13.8477 18.6062 14.0117 18.7C14.1758 18.782 14.2813 18.8289 14.3281 18.8406C15.0781 18.4187 15.7402 17.9793 16.3145 17.5223C16.8887 17.0652 17.457 16.6492 18.0195 16.2742C18.582 15.8875 19.1797 15.5711 19.8125 15.325C20.4453 15.0789 21.1895 14.9559 22.0449 14.9559C22.2559 14.9559 22.4727 14.9734 22.6953 15.0086C22.918 15.032 23.1289 15.073 23.3281 15.1316C23.2461 14.7098 23.1172 14.3406 22.9414 14.0242C22.7656 13.6961 22.5664 13.4148 22.3438 13.1805C22.1094 12.9344 21.8574 12.7352 21.5879 12.5828C21.3184 12.4187 21.0371 12.284 20.7441 12.1785C20.4043 12.0496 20.1582 11.9207 20.0059 11.7918C19.8535 11.6629 19.7773 11.5164 19.7773 11.3523C19.7773 11.2 19.8301 11.0477 19.9355 10.8953C20.0293 10.7312 20.1523 10.5906 20.3047 10.4734C20.457 10.3445 20.6152 10.2449 20.7793 10.1746C20.9434 10.0926 21.0898 10.0516 21.2188 10.0516C21.3945 10.0516 21.6055 10.0984 21.8516 10.1922C22.0977 10.2859 22.3496 10.4148 22.6074 10.5789C22.8652 10.7312 23.1172 10.907 23.3633 11.1062C23.5977 11.3055 23.8027 11.5105 23.9785 11.7215C24.4355 12.284 24.8223 12.9461 25.1387 13.7078C25.4434 14.4695 25.6367 15.4129 25.7188 16.5379C26.0938 16.9715 26.3984 17.4871 26.6328 18.0848C26.8789 18.6707 27.002 19.3328 27.002 20.0711C27.002 20.4461 26.9551 20.8328 26.8613 21.2312C26.7676 21.618 26.6445 21.993 26.4922 22.3562C26.3516 22.7078 26.1934 23.0301 26.0176 23.323C25.8418 23.616 25.666 23.8504 25.4902 24.0262C25.0684 24.4715 24.6465 24.7586 24.2246 24.8875C23.791 25.0164 23.4043 25.0457 23.0645 24.9754C22.7246 24.9168 22.4492 24.7937 22.2383 24.6062C22.0156 24.4187 21.9043 24.2254 21.9043 24.0262C21.9043 23.909 21.957 23.7273 22.0625 23.4812C22.1563 23.2234 22.2852 22.9305 22.4492 22.6023C22.6016 22.2742 22.7656 21.9168 22.9414 21.5301C23.1172 21.1434 23.2871 20.7566 23.4512 20.3699C23.6035 19.9832 23.7324 19.6082 23.8379 19.2449C23.9316 18.8699 23.9785 18.5301 23.9785 18.2254C23.7441 18.0262 23.4336 17.8445 23.0469 17.6805C22.6602 17.5164 22.2383 17.4344 21.7813 17.4344C21.2188 17.4344 20.6973 17.5105 20.2168 17.6629C19.7363 17.8152 19.291 18.0145 18.8809 18.2605C18.4707 18.5066 18.0898 18.7879 17.7383 19.1043C17.375 19.409 17.0352 19.7195 16.7188 20.0359C17.4102 20.3172 18.0957 20.5633 18.7754 20.7742C19.4434 20.9852 20.2051 21.2078 21.0605 21.4422ZM8.68555 7.02672C8.68555 7.31969 8.62695 7.60094 8.50977 7.87047C8.39258 8.12828 8.23438 8.3568 8.03516 8.55602C7.83594 8.74352 7.60742 8.89586 7.34961 9.01305C7.08008 9.13023 6.79297 9.18883 6.48828 9.18883C6.17188 9.18883 5.87891 9.13023 5.60938 9.01305C5.33984 8.89586 5.11133 8.74352 4.92383 8.55602C4.72461 8.3568 4.57227 8.12828 4.4668 7.87047C4.34961 7.60094 4.29102 7.31969 4.29102 7.02672C4.29102 6.71031 4.34961 6.41734 4.4668 6.14781C4.57227 5.87828 4.72461 5.64977 4.92383 5.46227C5.11133 5.26305 5.33984 5.1107 5.60938 5.00523C5.87891 4.88805 6.17188 4.82945 6.48828 4.82945C6.79297 4.82945 7.08008 4.88805 7.34961 5.00523C7.60742 5.1107 7.83594 5.26305 8.03516 5.46227C8.23438 5.64977 8.39258 5.87828 8.50977 6.14781C8.62695 6.41734 8.68555 6.71031 8.68555 7.02672ZM22.9766 6.20055C23.0586 6.20055 23.1934 6.19469 23.3809 6.18297C23.5566 6.17125 23.7383 6.13609 23.9258 6.0775C24.1133 6.01891 24.2773 5.92516 24.418 5.79625C24.5586 5.66734 24.6289 5.4857 24.6289 5.25133C24.6289 4.89977 24.5 4.59508 24.2422 4.33727C23.9844 4.06773 23.6621 3.83922 23.2754 3.65172C22.8887 3.4525 22.4727 3.28844 22.0273 3.15953C21.5703 3.03062 21.1426 2.92516 20.7441 2.84312C20.3809 2.77281 20.1172 2.66734 19.9531 2.52672C19.7891 2.37437 19.7012 2.21617 19.6895 2.05211C19.666 1.87633 19.707 1.70641 19.8125 1.54234C19.918 1.36656 20.0586 1.21422 20.2344 1.08531C20.3984 0.944687 20.5859 0.845078 20.7969 0.786484C21.0078 0.716171 21.207 0.704453 21.3945 0.751328C21.9922 0.91539 22.6191 1.13219 23.2754 1.40172C23.9316 1.65953 24.5352 1.99352 25.0859 2.40367C25.6367 2.81383 26.0938 3.30602 26.457 3.88023C26.8203 4.45445 27.002 5.12828 27.002 5.90172C27.002 6.38219 26.9082 6.80992 26.7207 7.18492C26.5449 7.55992 26.3047 7.87633 26 8.13414C25.6953 8.39195 25.3379 8.59117 24.9277 8.7318C24.5176 8.8607 24.084 8.92516 23.627 8.92516H14.0117C13.6719 8.92516 13.4258 8.95445 13.2734 9.01305C13.1211 9.05992 12.9805 9.08336 12.8516 9.08336C12.6758 9.08336 12.5352 8.98961 12.4297 8.80211C12.3125 8.61461 12.2539 8.39195 12.2539 8.13414C12.2539 7.53648 12.4121 7.06773 12.7285 6.72789C13.0332 6.37633 13.4023 6.20055 13.8359 6.20055H22.9766Z" fill="#8D3333"/>
<path d="M6.40039 98.8809L6.60625 99.5499L6.62923 99.5428L6.65168 99.5342L6.40039 98.8809ZM5.83789 96.5605L6.36575 97.0203L6.37362 97.0113L6.38117 97.002L5.83789 96.5605ZM18.7227 95.998V96.698H19.5595L19.4116 95.8744L18.7227 95.998ZM18.3008 94.5039L17.6425 94.742L17.6442 94.7466L18.3008 94.5039ZM17.5098 92.8691L18.1077 92.5052L18.1055 92.5016L17.5098 92.8691ZM16.2793 91.2871L15.7671 91.7643L15.7727 91.7702L16.2793 91.2871ZM14.5918 89.9336L14.2237 90.5291L14.2316 90.5338L14.5918 89.9336ZM12.4121 88.9844L12.211 89.6549L12.2172 89.6567L12.4121 88.9844ZM7.54297 88.9668L7.74809 89.6361L7.75787 89.633L7.54297 88.9668ZM4.08008 91.8848L4.70225 92.2056L4.70424 92.2017L4.08008 91.8848ZM6.03125 100.674L6.48816 100.143L6.48413 100.14L6.03125 100.674ZM13.7305 102.414L13.89 103.096L13.8986 103.094L13.9072 103.091L13.7305 102.414ZM15.0664 101.957L15.3625 102.591L15.3707 102.587L15.0664 101.957ZM16.1035 101.254L16.5985 101.749L16.8923 101.455L16.7751 101.056L16.1035 101.254ZM17.334 100.885L17.0985 101.544L17.1091 101.548L17.1198 101.551L17.334 100.885ZM18.2656 101.324L18.654 100.742L18.643 100.735L18.2656 101.324ZM18.916 101.975L19.5238 101.627L19.5177 101.617L19.5112 101.606L18.916 101.975ZM18.8281 102.73L19.3441 103.203L19.364 103.182L19.382 103.158L18.8281 102.73ZM16.7715 104.26L17.0794 104.888L17.0872 104.885L17.0948 104.881L16.7715 104.26ZM14.7148 105.016L14.9007 105.691L14.9032 105.69L14.7148 105.016ZM7.38477 104.576L7.63302 103.922L7.63117 103.921L7.38477 104.576ZM3.86914 102.396L3.38325 102.9L3.38336 102.9L3.86914 102.396ZM1.60156 99.0039L2.25111 98.7429L2.24908 98.738L1.60156 99.0039ZM3.27148 88.2637L3.76274 88.7624L3.76646 88.7586L3.27148 88.2637ZM13.0449 86.3828L12.8214 87.0462L12.8279 87.0483L13.0449 86.3828ZM18.3711 90.0215L17.8327 90.4689L17.8359 90.4726L18.3711 90.0215ZM20.0586 92.6758L19.4219 92.9666L19.9906 94.2116L20.6671 93.0218L20.0586 92.6758ZM21.3066 91.1992L21.7391 91.7496L21.7464 91.7439L21.7535 91.738L21.3066 91.1992ZM22.8711 90.1973L23.1736 90.8285L23.1816 90.8247L23.1894 90.8207L22.8711 90.1973ZM24.6113 89.4766L24.8289 90.142L24.8403 90.1381L24.6113 89.4766ZM26.4043 88.8438L26.1713 88.1836L26.1672 88.1851L26.4043 88.8438ZM29.6035 87.1035L29.1662 86.5569L29.1436 86.575L29.1225 86.595L29.6035 87.1035ZM29.7266 86.9277L29.0832 86.652L29.0717 86.6788L29.0625 86.7064L29.7266 86.9277ZM29.8145 86.6992L29.1711 86.4235L29.1596 86.4502L29.1504 86.4779L29.8145 86.6992ZM29.9199 86.5059L29.3733 86.0686L29.3665 86.0771L29.3599 86.0859L29.9199 86.5059ZM30.6758 86.7168L30.1951 87.2257L30.202 87.2322L30.209 87.2385L30.6758 86.7168ZM31.291 87.4199L30.7164 87.8197L30.7221 87.8279L30.7281 87.836L31.291 87.4199ZM31.7832 88.2461L31.1468 88.5378L31.1517 88.5481L31.7832 88.2461ZM31.7656 89.3359L32.2272 89.8622L32.2444 89.8471L32.2606 89.8309L31.7656 89.3359ZM29.6738 90.707L29.3857 90.0691L29.3818 90.0709L29.6738 90.707ZM27.5293 91.5332L27.3211 90.8649L27.318 90.8659L27.5293 91.5332ZM23.627 92.8867L23.9503 93.5076L23.9604 93.5022L23.627 92.8867ZM21.1836 95.998L20.508 95.8147L20.2683 96.698H21.1836V95.998ZM26.8086 96.2969L26.2052 96.6518L26.2128 96.6646L26.2209 96.6772L26.8086 96.2969ZM26.6855 98.2129L27.2933 98.5602L27.2984 98.5513L27.3032 98.5423L26.6855 98.2129ZM26.3516 98.6348L26.8198 99.1551L26.8224 99.1527L26.3516 98.6348ZM7.13867 98.093C6.78549 98.093 6.42917 98.1198 6.14911 98.2275L6.65168 99.5342C6.65018 99.5348 6.65936 99.5312 6.68301 99.526C6.70619 99.5209 6.73864 99.5152 6.78197 99.51C6.86961 99.4996 6.98704 99.493 7.13867 99.493V98.093ZM6.19453 98.2118C6.09378 98.2428 6.02343 98.2512 5.97852 98.2512V99.6512C6.19141 99.6512 6.40231 99.6127 6.60625 99.5499L6.19453 98.2118ZM5.97852 98.2512C5.99758 98.2512 6.0215 98.2538 6.0477 98.2615C6.07397 98.2691 6.09649 98.28 6.11415 98.2913C6.14868 98.3134 6.15071 98.3278 6.13266 98.2989L4.94546 99.0409C5.1528 99.3727 5.49782 99.6512 5.97852 99.6512V98.2512ZM6.13266 98.2989C6.09588 98.2401 6.06328 98.1507 6.06328 98.002H4.66328C4.66328 98.3688 4.74787 98.7248 4.94546 99.0409L6.13266 98.2989ZM6.06328 98.002C6.06328 97.5311 6.18522 97.2276 6.36575 97.0203L5.31003 96.1008C4.85774 96.6201 4.66328 97.2775 4.66328 98.002H6.06328ZM6.38117 97.002C6.56584 96.7747 6.74802 96.698 6.96289 96.698V95.298C6.28714 95.298 5.71931 95.5964 5.29461 96.1191L6.38117 97.002ZM6.96289 96.698H18.7227V95.298H6.96289V96.698ZM19.4116 95.8744C19.3209 95.3686 19.1677 94.8303 18.9574 94.2613L17.6442 94.7466C17.8323 95.2557 17.9604 95.7134 18.0337 96.1217L19.4116 95.8744ZM18.959 94.2658C18.7428 93.6679 18.4582 93.081 18.1077 92.5052L16.9118 93.2331C17.2176 93.7354 17.4603 94.2383 17.6425 94.742L18.959 94.2658ZM18.1055 92.5016C17.7382 91.9063 17.2975 91.3406 16.7859 90.8041L15.7727 91.7702C16.222 92.2414 16.6016 92.7304 16.914 93.2367L18.1055 92.5016ZM16.7914 90.8099C16.2634 90.2433 15.6489 89.7515 14.9519 89.3333L14.2316 90.5338C14.8237 90.8891 15.3342 91.2997 15.7672 91.7643L16.7914 90.8099ZM14.9599 89.3382C14.2558 88.9029 13.4699 88.5622 12.607 88.312L12.2172 89.6567C12.9715 89.8753 13.6388 90.1674 14.2237 90.529L14.9599 89.3382ZM12.6133 88.3139C11.7167 88.0449 10.7274 87.9152 9.65234 87.9152V89.3152C10.6163 89.3152 11.4669 89.4316 12.211 89.6549L12.6133 88.3139ZM9.65234 87.9152C8.89132 87.9152 8.11562 88.0466 7.32807 88.3006L7.75787 89.633C8.42344 89.4183 9.05399 89.3152 9.65234 89.3152V87.9152ZM7.33787 88.2975C6.52554 88.5465 5.78433 88.9403 5.11805 89.4759L5.99523 90.567C6.52426 90.1417 7.10728 89.8324 7.74807 89.6361L7.33787 88.2975ZM5.11805 89.4759C4.43462 90.0253 3.88242 90.7278 3.45591 91.5679L4.70424 92.2017C5.05117 91.5183 5.48335 90.9786 5.99523 90.567L5.11805 89.4759ZM3.45792 91.564C3.00885 92.4349 2.8 93.4528 2.8 94.5918H4.2C4.2 93.6214 4.37787 92.8347 4.70224 92.2056L3.45792 91.564ZM2.8 94.5918C2.8 96.0502 3.04089 97.3485 3.54804 98.4668L4.82306 97.8886C4.41614 96.9913 4.2 95.8991 4.2 94.5918H2.8ZM3.54804 98.4668C4.04384 99.5602 4.7191 100.479 5.57837 101.208L6.48413 100.14C5.79652 99.5566 5.24131 98.8109 4.82306 97.8886L3.54804 98.4668ZM5.57435 101.204C6.40908 101.923 7.36521 102.455 8.43618 102.799L8.8646 101.466C7.96682 101.178 7.17686 100.737 6.48815 100.144L5.57435 101.204ZM8.43618 102.799C9.49117 103.138 10.5831 103.307 11.709 103.307V101.907C10.7255 101.907 9.77836 101.76 8.8646 101.466L8.43618 102.799ZM11.709 103.307C12.5396 103.307 13.2705 103.241 13.89 103.096L13.5709 101.732C13.0889 101.845 12.4721 101.907 11.709 101.907V103.307ZM13.9072 103.091C14.4711 102.944 14.9599 102.779 15.3624 102.591L14.7704 101.323C14.4698 101.463 14.0679 101.603 13.5538 101.737L13.9072 103.091ZM15.3707 102.587C15.731 102.413 16.046 102.23 16.2778 102.031L15.3667 100.969C15.2704 101.051 15.0815 101.172 14.7621 101.327L15.3707 102.587ZM16.2778 102.031C16.4282 101.903 16.5506 101.797 16.5985 101.749L15.6085 100.759C15.617 100.75 15.619 100.749 15.6045 100.762C15.5932 100.772 15.5769 100.787 15.5547 100.806C15.5104 100.845 15.448 100.899 15.3667 100.969L16.2778 102.031ZM16.7751 101.056C16.763 101.015 16.7794 101.044 16.7676 101.114C16.7611 101.153 16.7463 101.203 16.7159 101.255C16.6851 101.308 16.6455 101.352 16.6036 101.385L15.7441 100.279C15.2953 100.629 15.3438 101.152 15.432 101.451L16.7751 101.056ZM16.6036 101.385C16.5925 101.393 16.5818 101.4 16.5726 101.404C16.5634 101.409 16.557 101.411 16.5544 101.412C16.5498 101.413 16.5613 101.409 16.5957 101.409V100.009C16.3135 100.009 16.0063 100.076 15.7441 100.279L16.6036 101.385ZM16.5957 101.409C16.5956 101.409 16.5987 101.409 16.6057 101.41C16.6126 101.41 16.6223 101.411 16.6351 101.413C16.6612 101.417 16.6961 101.423 16.7412 101.434C16.8322 101.456 16.9503 101.491 17.0985 101.544L17.5694 100.226C17.2312 100.105 16.8883 100.009 16.5957 100.009V101.409ZM17.1198 101.551C17.3899 101.638 17.6457 101.759 17.8883 101.914L18.643 100.735C18.2996 100.515 17.9343 100.342 17.5482 100.218L17.1198 101.551ZM17.8773 101.907C18.089 102.048 18.2295 102.195 18.3208 102.343L19.5112 101.606C19.2979 101.262 19.0048 100.976 18.6539 100.742L17.8773 101.907ZM18.3082 102.322C18.3125 102.329 18.3094 102.326 18.3065 102.313C18.3051 102.307 18.3039 102.299 18.3035 102.291C18.3031 102.282 18.3034 102.274 18.3042 102.267C18.3059 102.253 18.3092 102.247 18.3069 102.252C18.3043 102.258 18.2957 102.275 18.2742 102.302L19.382 103.158C19.5377 102.957 19.6618 102.713 19.6948 102.429C19.7287 102.137 19.6591 101.864 19.5238 101.627L18.3082 102.322ZM18.3121 102.257C18.2137 102.365 18.0072 102.558 17.6679 102.851L18.5821 103.911C18.9225 103.618 19.1848 103.377 19.3441 103.203L18.3121 102.257ZM17.6679 102.851C17.382 103.097 16.9807 103.362 16.4481 103.639L17.0948 104.881C17.6873 104.572 18.1883 104.25 18.5821 103.911L17.6679 102.851ZM16.4636 103.631C15.937 103.889 15.2935 104.127 14.5265 104.341L14.9032 105.69C15.7299 105.459 16.4575 105.193 17.0794 104.888L16.4636 103.631ZM14.529 104.341C13.7942 104.543 12.9272 104.65 11.9199 104.65V106.05C13.0221 106.05 14.0183 105.933 14.9007 105.691L14.529 104.341ZM11.9199 104.65C10.3286 104.65 8.90249 104.403 7.63302 103.922L7.13651 105.231C8.58579 105.78 10.1832 106.05 11.9199 106.05V104.65ZM7.63117 103.921C6.34173 103.436 5.2533 102.758 4.35492 101.892L3.38336 102.9C4.43029 103.91 5.68562 104.685 7.13837 105.231L7.63117 103.921ZM4.35504 101.893C3.44419 101.014 2.74293 99.9671 2.2511 98.7429L0.952029 99.2649C1.51488 100.666 2.32534 101.88 3.38325 102.9L4.35504 101.893ZM2.24908 98.738C1.74893 97.5202 1.49297 96.1531 1.49297 94.627H0.0929689C0.0929689 96.3117 0.376065 97.8626 0.954049 99.2698L2.24908 98.738ZM1.49297 94.627C1.49297 93.3924 1.69665 92.2872 2.0928 91.3022L0.793914 90.7798C0.32288 91.951 0.0929689 93.2365 0.0929689 94.627H1.49297ZM2.0928 91.3022C2.49252 90.3083 3.04974 89.4647 3.76272 88.7624L2.78024 87.765C1.92291 88.6095 1.26139 89.6175 0.793914 90.7798L2.0928 91.3022ZM3.76646 88.7586C4.46766 88.0574 5.31037 87.5114 6.30391 87.1226L5.79375 85.8188C4.63104 86.2738 3.62218 86.923 2.77651 87.7687L3.76646 88.7586ZM6.30391 87.1226C7.29275 86.7356 8.38295 86.5379 9.58203 86.5379V85.1379C8.22642 85.1379 6.96115 85.362 5.79375 85.8188L6.30391 87.1226ZM9.58203 86.5379C10.7427 86.5379 11.8209 86.7091 12.8214 87.0462L13.2684 85.7195C12.1126 85.33 10.8823 85.1379 9.58203 85.1379V86.5379ZM12.8279 87.0483C13.8437 87.3795 14.7658 87.8359 15.5976 88.416L16.3985 87.2676C15.4491 86.6055 14.4024 86.0892 13.2619 85.7173L12.8279 87.0483ZM15.5976 88.416C16.437 89.0013 17.1816 89.6853 17.8327 90.4689L18.9095 89.5741C18.1778 88.6936 17.3404 87.9245 16.3985 87.2676L15.5976 88.416ZM17.8359 90.4726C18.4875 91.2457 19.0154 92.0768 19.4219 92.9666L20.6953 92.3849C20.2346 91.3763 19.6375 90.4379 18.9063 89.5704L17.8359 90.4726ZM20.6671 93.0218C20.9665 92.4953 21.325 92.075 21.7391 91.7496L20.8742 90.6488C20.3039 91.0969 19.8304 91.661 19.4501 92.3298L20.6671 93.0218ZM21.7535 91.738C22.1898 91.3762 22.6628 91.0733 23.1736 90.8285L22.5686 89.566C21.9543 89.8603 21.3844 90.2254 20.8598 90.6604L21.7535 91.738ZM23.1894 90.8207C23.7066 90.5566 24.2529 90.3302 24.8288 90.1419L24.3938 88.8112C23.7511 89.0213 23.1372 89.2754 22.5527 89.5738L23.1894 90.8207ZM24.8403 90.1381C25.4523 89.9262 26.0527 89.7143 26.6414 89.5024L26.1672 88.1851C25.5841 88.3951 24.9891 88.605 24.3824 88.8151L24.8403 90.1381ZM26.6373 89.5038C27.2596 89.2842 27.8588 89.0336 28.4346 88.7518L27.8193 87.4943C27.2936 87.7516 26.7443 87.9814 26.1713 88.1837L26.6373 89.5038ZM28.4346 88.7518C29.0472 88.452 29.5982 88.0721 30.0846 87.612L29.1225 86.595C28.7417 86.9552 28.3083 87.255 27.8193 87.4943L28.4346 88.7518ZM30.0408 87.6501C30.2034 87.5201 30.324 87.3491 30.3906 87.1491L29.0625 86.7064C29.0713 86.6798 29.0851 86.651 29.1048 86.623C29.1243 86.595 29.146 86.5731 29.1662 86.5569L30.0408 87.6501ZM30.37 87.2035C30.4113 87.1071 30.4479 87.0126 30.4785 86.9206L29.1504 86.4779C29.1342 86.5265 29.1122 86.5843 29.0832 86.652L30.37 87.2035ZM30.4579 86.975C30.4685 86.9501 30.4767 86.9338 30.4817 86.9246C30.487 86.9148 30.4868 86.9166 30.4799 86.9259L29.3599 86.0859C29.2788 86.1941 29.218 86.3139 29.1711 86.4235L30.4579 86.975ZM30.4665 86.9431C30.4359 86.9815 30.3857 87.0292 30.3121 87.066C30.2371 87.1035 30.1611 87.118 30.0957 87.118V85.718C29.7968 85.718 29.5428 85.8568 29.3733 86.0686L30.4665 86.9431ZM30.0957 87.118C30.0487 87.118 30.0313 87.1043 30.052 87.115C30.0745 87.1266 30.1226 87.1572 30.1951 87.2257L31.1564 86.2079C30.8951 85.9611 30.5358 85.718 30.0957 85.718V87.118ZM30.209 87.2385C30.3873 87.398 30.5569 87.5905 30.7164 87.8197L31.8657 87.0202C31.6501 86.7103 31.4095 86.434 31.1425 86.1951L30.209 87.2385ZM30.7281 87.836C30.901 88.0699 31.0397 88.3039 31.1469 88.5378L32.4195 87.9544C32.2689 87.6258 32.0795 87.309 31.8539 87.0038L30.7281 87.836ZM31.1517 88.5481C31.207 88.6636 31.2411 88.7504 31.2604 88.8119C31.2813 88.8785 31.2766 88.8893 31.2766 88.8613H32.6766C32.6766 88.5523 32.5491 88.225 32.4147 87.9441L31.1517 88.5481ZM31.2766 88.8613C31.2766 88.8583 31.2769 88.8527 31.2784 88.8457C31.2799 88.8386 31.282 88.8323 31.2842 88.8275C31.2862 88.8229 31.2874 88.8215 31.286 88.8235C31.2845 88.8256 31.28 88.8316 31.2706 88.841L32.2606 89.8309C32.5137 89.5778 32.6766 89.2477 32.6766 88.8613H31.2766ZM31.304 88.8097C30.6822 89.3552 30.0425 89.7725 29.3857 90.0691L29.9619 91.345C30.7583 90.9853 31.5131 90.4886 32.2272 89.8622L31.304 88.8097ZM29.3818 90.0709C28.6928 90.3871 28.006 90.6516 27.3211 90.8649L27.7375 92.2015C28.4823 91.9695 29.2251 91.6832 29.9658 91.3432L29.3818 90.0709ZM27.318 90.8659C26.6217 91.0863 25.9436 91.2892 25.2835 91.4745L25.6618 92.8224C26.3377 92.6327 27.0306 92.4254 27.7406 92.2005L27.318 90.8659ZM25.2835 91.4745C24.5696 91.6749 23.9055 91.9398 23.2936 92.2712L23.9604 93.5022C24.4734 93.2243 25.0398 92.997 25.6618 92.8224L25.2835 91.4745ZM23.3036 92.2659C22.6637 92.5992 22.1029 93.04 21.6244 93.585L22.6764 94.5087C23.0416 94.0928 23.4653 93.7602 23.9503 93.5076L23.3036 92.2659ZM21.6244 93.585C21.1128 94.1676 20.7499 94.9238 20.508 95.8147L21.8591 96.1814C22.0626 95.4317 22.3442 94.8871 22.6764 94.5087L21.6244 93.585ZM21.1836 96.698H26.1758V95.298H21.1836V96.698ZM26.1758 96.698C26.2551 96.698 26.2756 96.7114 26.2636 96.7057C26.2567 96.7025 26.2448 96.6955 26.2318 96.6837C26.2188 96.6718 26.2101 96.66 26.2052 96.6518L27.4119 95.942C27.1292 95.4614 26.6386 95.298 26.1758 95.298V96.698ZM26.2209 96.6772C26.2669 96.7482 26.302 96.8465 26.302 97H27.702C27.702 96.6144 27.6081 96.244 27.3963 95.9166L26.2209 96.6772ZM26.302 97C26.302 97.1453 26.2819 97.2932 26.2396 97.4455L27.5885 97.8202C27.6634 97.5505 27.702 97.2766 27.702 97H26.302ZM26.2396 97.4455C26.1934 97.6119 26.1353 97.757 26.0679 97.8835L27.3032 98.5423C27.4233 98.3172 27.5176 98.0756 27.5885 97.8202L26.2396 97.4455ZM26.0778 97.8656C26.0174 97.9713 25.9509 98.053 25.8807 98.1168L26.8224 99.1527C27.01 98.9822 27.1662 98.7826 27.2933 98.5602L26.0778 97.8656ZM25.8833 98.1145C25.8768 98.1203 25.8827 98.1134 25.902 98.1055C25.9225 98.0971 25.9452 98.093 25.9648 98.093V99.493C26.2997 99.493 26.5909 99.3612 26.8198 99.1551L25.8833 98.1145ZM25.9648 98.093H7.13867V99.493H25.9648V98.093ZM17.5801 73.6724L17.3587 74.3366L17.3688 74.3398L17.5801 73.6724ZM19.584 74.692L19.1741 75.2594L19.1761 75.2608L19.584 74.692ZM21.2715 76.3619L21.8315 75.9419L21.8303 75.9403L21.2715 76.3619ZM22.3965 78.647L21.7255 78.8465L21.9412 79.5721L22.6478 79.3004L22.3965 78.647ZM23.2754 78.19L23.6637 78.7724L23.6778 78.763L23.6915 78.7529L23.2754 78.19ZM24.4531 76.5552L25.1172 76.7766L25.1193 76.7701L24.4531 76.5552ZM24.2422 73.4966L24.8655 73.1778L24.8594 73.1665L24.2422 73.4966ZM23.1875 72.231L22.7466 72.7748L22.7557 72.782L23.1875 72.231ZM20.0938 70.9127L19.9526 71.5983L19.9621 71.6002L20.0938 70.9127ZM19.3027 70.4205L19.9229 70.0956L19.9173 70.0853L19.3027 70.4205ZM19.1973 69.647L19.8726 69.8312L19.8746 69.8237L19.1973 69.647ZM19.6543 68.9615L20.0916 69.5081L20.1067 69.496L20.1211 69.4832L19.6543 68.9615ZM20.4629 68.7154L20.5525 68.021L20.5402 68.0197L20.4629 68.7154ZM21.7109 68.9615L21.5412 69.6406L21.5492 69.6426L21.5573 69.6444L21.7109 68.9615ZM24.5586 70.315L24.1386 70.875L24.1409 70.8767L24.5586 70.315ZM26.5098 78.0845L25.8653 77.8111L25.8633 77.816L26.5098 78.0845ZM25.1387 80.1236L25.6239 80.6283L25.6336 80.6186L25.1387 80.1236ZM22.9062 81.5474L23.1633 82.1986L23.1736 82.1943L22.9062 81.5474ZM16.7188 81.6002L16.9353 80.9345L16.933 80.9337L16.7188 81.6002ZM12.5 78.5943L13.0984 78.231L13.0936 78.2233L12.5 78.5943ZM12.1484 75.2193L12.7889 75.5019L12.7918 75.495L12.1484 75.2193ZM12.9043 74.1822L13.3599 74.7138L13.3694 74.7054L12.9043 74.1822ZM14.0469 73.5494L14.2577 74.2169L14.2656 74.2144L14.2735 74.2117L14.0469 73.5494ZM19.7773 79.1216V78.4216H19.7607L19.744 78.4224L19.7773 79.1216ZM20.4277 79.0865V79.7865H21.5339L21.0604 78.7868L20.4277 79.0865ZM17.123 76.3443L17.3154 75.6712L17.3112 75.6701L17.123 76.3443ZM14.627 76.3443L14.9777 76.9501L14.9893 76.9433L15.0007 76.9361L14.627 76.3443ZM14.5918 77.6802L14.0584 78.1336L14.0642 78.1404L14.0701 78.147L14.5918 77.6802ZM15.3828 78.2779L15.0522 78.895L15.0606 78.8993L15.3828 78.2779ZM16.4727 78.6998L16.2803 79.373L16.2935 79.3765L16.4727 78.6998ZM18.8633 79.1041L18.9083 78.4055L18.9069 78.4054L18.8633 79.1041ZM15.5234 74.0209C16.1084 74.0209 16.7192 74.1233 17.3587 74.3365L17.8014 73.0083C17.0347 72.7528 16.2744 72.6209 15.5234 72.6209V74.0209ZM17.3688 74.3398C17.9968 74.5386 18.5982 74.8435 19.1741 75.2594L19.9938 74.1245C19.3041 73.6264 18.5696 73.2515 17.7914 73.0051L17.3688 74.3398ZM19.1761 75.2608C19.7346 75.6612 20.2473 76.1666 20.7127 76.7834L21.8303 75.9403C21.2878 75.2212 20.6756 74.6133 19.9919 74.1231L19.1761 75.2608ZM20.7115 76.7819C21.149 77.3653 21.4889 78.0507 21.7255 78.8465L23.0675 78.4476C22.7884 77.509 22.3783 76.671 21.8315 75.9419L20.7115 76.7819ZM22.6478 79.3004C23.0023 79.164 23.341 78.9875 23.6637 78.7724L22.8871 77.6076C22.6472 77.7675 22.4001 77.8957 22.1452 77.9937L22.6478 79.3004ZM23.6915 78.7529C24.017 78.5123 24.3008 78.2285 24.5414 77.9029L23.4156 77.0708C23.2577 77.2844 23.0729 77.4692 22.8593 77.6271L23.6915 78.7529ZM24.5414 77.9029C24.7888 77.5683 24.9792 77.1907 25.1172 76.7766L23.789 76.3339C23.6927 76.6229 23.5667 76.8664 23.4156 77.0708L24.5414 77.9029ZM25.1193 76.7701C25.2633 76.3237 25.3289 75.8329 25.3289 75.3072H23.9289C23.9289 75.719 23.8773 76.0602 23.7869 76.3403L25.1193 76.7701ZM25.3289 75.3072C25.3289 74.5195 25.1844 73.8014 24.8654 73.1778L23.619 73.8155C23.8156 74.1996 23.9289 74.6886 23.9289 75.3072H25.3289ZM24.8594 73.1665C24.5458 72.5802 24.1322 72.0821 23.6193 71.6801L22.7557 72.782C23.1099 73.0596 23.3995 73.4053 23.6249 73.8268L24.8594 73.1665ZM23.6284 71.6873C23.1367 71.2887 22.5873 70.9716 21.9836 70.7354L21.4734 72.0391C21.9479 72.2248 22.3711 72.4702 22.7466 72.7747L23.6284 71.6873ZM21.9836 70.7354C21.4059 70.5093 20.8197 70.3389 20.2254 70.2251L19.9621 71.6002C20.4694 71.6973 20.9731 71.8433 21.4734 72.0391L21.9836 70.7354ZM20.2349 70.227C20.093 70.1978 20.0106 70.1609 19.967 70.1337C19.9462 70.1208 19.9354 70.1108 19.9304 70.1056C19.9257 70.1008 19.9239 70.0977 19.9228 70.0957L18.6827 70.7453C18.9476 71.2511 19.4469 71.4942 19.9526 71.5983L20.2349 70.227ZM19.9173 70.0853C19.8539 69.9691 19.8548 69.8966 19.8726 69.8312L18.5219 69.4628C18.3991 69.9131 18.4703 70.3562 18.6882 70.7557L19.9173 70.0853ZM19.8746 69.8237C19.9038 69.7117 19.9653 69.6091 20.0916 69.5081L19.217 68.4149C18.8745 68.6889 18.6313 69.0433 18.5199 69.4703L19.8746 69.8237ZM20.1211 69.4832C20.1847 69.4262 20.2524 69.3963 20.3856 69.4111L20.5402 68.0197C20.0406 67.9642 19.5692 68.0983 19.1875 68.4398L20.1211 69.4832ZM20.3733 69.4096C20.7027 69.4521 21.091 69.5281 21.5412 69.6406L21.8807 68.2824C21.3933 68.1605 20.9497 68.0724 20.5525 68.0211L20.3733 69.4096ZM21.5573 69.6444C21.9729 69.7379 22.4005 69.8849 22.8404 70.0888L23.4291 68.8186C22.9081 68.5771 22.3864 68.396 21.8646 68.2786L21.5573 69.6444ZM22.8404 70.0888C23.2721 70.2888 23.7049 70.5497 24.1386 70.875L24.9786 69.755C24.4748 69.3771 23.9584 69.0638 23.4291 68.8186L22.8404 70.0888ZM24.1409 70.8767C24.5354 71.1701 24.8961 71.539 25.2212 71.99L26.3569 71.1713C25.9554 70.6144 25.4958 70.1396 24.9763 69.7533L24.1409 70.8767ZM25.2212 71.99C25.5366 72.4274 25.7992 72.9525 26.0028 73.5739L27.3332 73.1381C27.0914 72.4001 26.7681 71.7417 26.3569 71.1713L25.2212 71.99ZM26.0028 73.5739C26.1978 74.1693 26.302 74.8727 26.302 75.6939H27.702C27.702 74.7573 27.5835 73.9021 27.3332 73.1381L26.0028 73.5739ZM26.302 75.6939C26.302 76.418 26.1577 77.122 25.8654 77.8111L27.1542 78.3579C27.5181 77.5001 27.702 76.6105 27.702 75.6939H26.302ZM25.8633 77.816C25.583 78.4909 25.1782 79.0942 24.6437 79.6286L25.6336 80.6186C26.2945 79.9577 26.8038 79.2016 27.1562 78.3531L25.8633 77.816ZM24.6535 79.619C24.1146 80.1372 23.447 80.5665 22.6389 80.9005L23.1736 82.1943C24.1233 81.8018 24.944 81.2819 25.6238 80.6282L24.6535 79.619ZM22.6492 80.8963C21.8534 81.2104 20.9349 81.3748 19.8828 81.3748V82.7748C21.0807 82.7748 22.1778 82.5875 23.1633 82.1985L22.6492 80.8963ZM19.8828 81.3748C18.8115 81.3748 17.8307 81.2258 16.9353 80.9345L16.5022 82.2658C17.5521 82.6074 18.6807 82.7748 19.8828 82.7748V81.3748ZM16.933 80.9337C16.0067 80.636 15.2255 80.2504 14.5794 79.7844L13.7604 80.9198C14.5441 81.4851 15.4621 81.9315 16.5045 82.2666L16.933 80.9337ZM14.5794 79.7844C13.9294 79.3155 13.4415 78.7962 13.0984 78.231L11.9016 78.9576C12.3554 79.7049 12.9807 80.3574 13.7604 80.9198L14.5794 79.7844ZM13.0936 78.2233C12.7444 77.6646 12.5848 77.1178 12.5848 76.5728H11.1848C11.1848 77.4106 11.4353 78.2115 11.9064 78.9653L13.0936 78.2233ZM12.5848 76.5728C12.5848 76.151 12.6581 75.7984 12.7889 75.5018L11.508 74.9367C11.2872 75.4371 11.1848 75.9868 11.1848 76.5728H12.5848ZM12.7918 75.495C12.9268 75.1801 13.1158 74.9229 13.3598 74.7137L12.4487 73.6507C12.0366 74.004 11.7216 74.4382 11.505 74.9436L12.7918 75.495ZM13.3694 74.7054C13.6048 74.4961 13.8966 74.3309 14.2577 74.2169L13.8361 72.8819C13.3066 73.0491 12.8366 73.3058 12.4392 73.659L13.3694 74.7054ZM14.2735 74.2117C14.6361 74.0876 15.0504 74.0209 15.5234 74.0209V72.6209C14.9183 72.6209 14.3483 72.7064 13.8203 72.8871L14.2735 74.2117ZM19.7773 79.8216C19.9088 79.8216 20.0401 79.8143 20.1711 79.7998L20.0164 78.4083C19.9365 78.4172 19.8568 78.4216 19.7773 78.4216V79.8216ZM20.1711 79.7998C20.2484 79.7912 20.3337 79.7865 20.4277 79.7865V78.3865C20.2873 78.3865 20.1501 78.3935 20.0164 78.4083L20.1711 79.7998ZM21.0604 78.7868C20.8204 78.2802 20.5128 77.8187 20.1386 77.4044L19.0997 78.3428C19.3817 78.655 19.6132 79.0022 19.7951 79.3861L21.0604 78.7868ZM20.1386 77.4044C19.765 76.9907 19.3378 76.6372 18.8592 76.3447L18.1291 77.5393C18.4942 77.7624 18.8171 78.0299 19.0997 78.3428L20.1386 77.4044ZM18.8592 76.3447C18.3815 76.0528 17.8661 75.8286 17.3154 75.6712L16.9307 77.0174C17.3644 77.1413 17.763 77.3155 18.1291 77.5393L18.8592 76.3447ZM17.3112 75.6701C16.7442 75.5118 16.1593 75.4334 15.5586 75.4334V76.8334C16.036 76.8334 16.4941 76.8955 16.9349 77.0185L17.3112 75.6701ZM15.5586 75.4334C15.091 75.4334 14.6312 75.5137 14.2532 75.7525L15.0007 76.9361C15.068 76.8936 15.2293 76.8334 15.5586 76.8334V75.4334ZM14.2762 75.7385C13.863 75.9777 13.593 76.3768 13.593 76.8892H14.993C14.993 76.8864 14.9933 76.8923 14.99 76.9043C14.9867 76.9167 14.9811 76.9303 14.9733 76.943C14.9567 76.97 14.9463 76.9683 14.9777 76.9501L14.2762 75.7385ZM13.593 76.8892C13.593 77.3571 13.7575 77.7795 14.0584 78.1336L15.1252 77.2269C15.0277 77.1122 14.993 77.0073 14.993 76.8892H13.593ZM14.0701 78.147C14.3353 78.4434 14.6692 78.6897 15.0523 78.8949L15.7134 77.6609C15.4402 77.5145 15.2467 77.3624 15.1135 77.2135L14.0701 78.147ZM15.0606 78.8993C15.4256 79.0886 15.8337 79.2452 16.2804 79.3728L16.665 78.0267C16.2913 77.9199 15.9728 77.7953 15.705 77.6565L15.0606 78.8993ZM16.2935 79.3765C16.7122 79.4873 17.1368 79.5796 17.5673 79.6534L17.8038 78.2735C17.4139 78.2067 17.0299 78.1232 16.6518 78.0231L16.2935 79.3765ZM17.5673 79.6534C17.9995 79.7275 18.4171 79.7775 18.8196 79.8027L18.9069 78.4054C18.5594 78.3837 18.1919 78.34 17.8038 78.2735L17.5673 79.6534ZM18.8182 79.8026C19.1965 79.827 19.5293 79.8342 19.8106 79.8208L19.744 78.4224C19.5332 78.4325 19.2566 78.428 18.9083 78.4055L18.8182 79.8026ZM21.0605 65.8136L20.8756 66.4887L20.8832 66.4908L20.8908 66.4927L21.0605 65.8136ZM21.7637 66.3409L22.4307 66.1287L22.4264 66.1151L22.4215 66.1017L21.7637 66.3409ZM21.7285 67.1144L22.372 67.3902L22.3764 67.3794L21.7285 67.1144ZM21.1836 67.7472L21.5594 68.3378L21.5688 68.3318L21.5779 68.3255L21.1836 67.7472ZM20.3398 67.8878L20.4973 67.2057L20.4906 67.2042L20.3398 67.8878ZM17.7031 67.132L17.4722 67.7928L17.4769 67.7944L17.7031 67.132ZM14.8027 66.13L15.0289 65.4676L14.7061 65.3573L14.4203 65.5437L14.8027 66.13ZM13.9941 66.5519L14.24 67.2074L14.2492 67.2037L13.9941 66.5519ZM12.166 66.3761L11.7686 66.9524L11.773 66.9553L12.166 66.3761ZM11.2344 65.5499L10.7028 66.0056L10.7112 66.015L11.2344 65.5499ZM10.5488 64.548L11.1706 64.2263L11.1665 64.2186L10.5488 64.548ZM10.707 62.6847L11.116 63.2528L11.1234 63.2475L11.1306 63.242L10.707 62.6847ZM12.6934 62.4913L12.4634 63.1525L12.4722 63.1555L12.4811 63.1584L12.6934 62.4913ZM13.4316 62.7726L13.7314 62.1398L13.7189 62.1342L13.4316 62.7726ZM14.0117 63.0714L13.6644 63.6792L13.6813 63.6888L13.6987 63.6975L14.0117 63.0714ZM14.3281 63.212L14.1583 63.8911L14.4286 63.9587L14.6713 63.8221L14.3281 63.212ZM18.0195 60.6456L18.4079 61.2281L18.4161 61.2225L18.0195 60.6456ZM22.6953 59.38L22.5861 60.0714L22.604 60.0743L22.622 60.0762L22.6953 59.38ZM23.3281 59.503L23.1306 60.1746L24.235 60.4994L24.0153 59.3694L23.3281 59.503ZM22.9414 58.3956L22.3243 58.7262L22.3295 58.7356L22.9414 58.3956ZM22.3438 57.5519L22.8512 57.0698L22.8506 57.0691L22.3438 57.5519ZM21.5879 56.9542L21.2239 57.5522L21.2336 57.558L21.2435 57.5636L21.5879 56.9542ZM20.7441 56.5499L20.4958 57.2045L20.507 57.2085L20.7441 56.5499ZM19.9355 55.2667L20.5111 55.6652L20.5283 55.6403L20.5433 55.614L19.9355 55.2667ZM20.3047 54.8448L20.7315 55.3997L20.7444 55.3897L20.7568 55.3792L20.3047 54.8448ZM20.7793 54.546L21.055 55.1894L21.0739 55.1813L21.0923 55.1721L20.7793 54.546ZM22.6074 54.9503L22.2316 55.5409L22.2414 55.5471L22.2513 55.553L22.6074 54.9503ZM23.3633 55.4777L23.8166 54.9443L23.8102 54.9389L23.8037 54.9336L23.3633 55.4777ZM23.9785 56.0929L24.5218 55.6514L24.5163 55.6448L23.9785 56.0929ZM25.1387 58.0792L25.7887 57.8192L25.7851 57.8107L25.1387 58.0792ZM25.7188 60.9093L25.0206 60.9602L25.0375 61.1917L25.1893 61.3672L25.7188 60.9093ZM26.6328 62.4562L25.9811 62.7117L25.9842 62.7195L25.9874 62.7272L26.6328 62.4562ZM26.8613 65.6027L27.5416 65.7676L27.5427 65.763L26.8613 65.6027ZM26.4922 66.7277L25.8466 66.4569L25.8423 66.4677L26.4922 66.7277ZM25.4902 68.3976L24.9953 67.9026L24.9886 67.9093L24.9821 67.9162L25.4902 68.3976ZM24.2246 69.2589L24.4241 69.9299L24.4292 69.9284L24.2246 69.2589ZM23.0645 69.3468L23.2063 68.6613L23.1949 68.659L23.1834 68.657L23.0645 69.3468ZM22.2383 68.9777L22.7033 68.4545L22.6963 68.4482L22.6892 68.4422L22.2383 68.9777ZM22.0625 67.8527L22.7059 68.1284L22.7136 68.1103L22.7204 68.0919L22.0625 67.8527ZM22.4492 66.9738L23.0753 67.2868L23.0799 67.2777L23.0841 67.2685L22.4492 66.9738ZM23.4512 64.7413L24.0956 65.0147L24.0991 65.0064L24.1025 64.9979L23.4512 64.7413ZM23.8379 63.6163L24.5101 63.8115L24.5138 63.7989L24.517 63.7861L23.8379 63.6163ZM23.9785 62.5968H24.6785V62.2731L24.4319 62.0634L23.9785 62.5968ZM17.7383 63.4757L18.1881 64.012L18.1975 64.0042L18.2066 63.996L17.7383 63.4757ZM16.7188 64.4073L16.2238 63.9124L15.4779 64.6583L16.455 65.0558L16.7188 64.4073ZM18.7754 65.1456L18.9862 64.4781L18.9829 64.4771L18.7754 65.1456ZM20.8908 66.4927C21.0152 66.5238 21.0747 66.5586 21.0976 66.5757C21.108 66.5835 21.1101 66.5871 21.1088 66.5854C21.1083 66.5847 21.1076 66.5836 21.1068 66.5822C21.1061 66.5809 21.1058 66.5801 21.1058 66.5802L22.4215 66.1017C22.2186 65.5436 21.731 65.2597 21.2303 65.1345L20.8908 66.4927ZM21.0966 66.5532C21.1273 66.6496 21.126 66.7386 21.0806 66.8493L22.3764 67.3794C22.542 66.9746 22.5641 66.5479 22.4307 66.1287L21.0966 66.5532ZM21.0851 66.8386C21.0404 66.9431 20.9555 67.0555 20.7893 67.1688L21.5779 68.3255C21.9273 68.0873 22.2057 67.7779 22.3719 67.3901L21.0851 66.8386ZM20.8078 67.1566C20.7123 67.2174 20.6239 67.235 20.4972 67.2057L20.1824 68.5699C20.6652 68.6813 21.1392 68.6051 21.5594 68.3378L20.8078 67.1566ZM20.4906 67.2042C19.7245 67.0353 18.8712 66.7911 17.9293 66.4695L17.4769 67.7944C18.4569 68.129 19.3614 68.3888 20.1891 68.5714L20.4906 67.2042ZM17.934 66.4711C16.9598 66.1307 15.9915 65.7962 15.0289 65.4676L14.5765 66.7924C15.5359 67.12 16.5011 67.4535 17.4722 67.7928L17.934 66.4711ZM14.4203 65.5437C14.1865 65.6962 13.9594 65.8138 13.7391 65.9L14.2492 67.2037C14.5679 67.079 14.8799 66.9154 15.1851 66.7163L14.4203 65.5437ZM13.7484 65.8964C13.5468 65.972 13.3372 66.0101 13.1152 66.0101V67.4101C13.5026 67.4101 13.8789 67.3427 14.2399 67.2073L13.7484 65.8964ZM13.1152 66.0101C12.9874 66.0101 12.8058 65.9643 12.5591 65.7969L11.773 66.9553C12.1824 67.2332 12.6337 67.4101 13.1152 67.4101V66.0101ZM12.5634 65.7998C12.271 65.5982 12.0025 65.3604 11.7576 65.0849L10.7112 66.015C11.0288 66.3723 11.3814 66.6853 11.7686 66.9523L12.5634 65.7998ZM11.7659 65.0944C11.5153 64.8021 11.3186 64.5125 11.1706 64.2264L9.92708 64.8696C10.1306 65.2631 10.3909 65.6415 10.7029 66.0055L11.7659 65.0944ZM11.1665 64.2186C11.0032 63.9124 10.9676 63.7326 10.9676 63.6515H9.56758C9.56758 64.0625 9.71947 64.4804 9.93118 64.8774L11.1665 64.2186ZM10.9676 63.6515C10.9676 63.3918 11.0437 63.3048 11.116 63.2528L10.298 62.1166C9.78438 62.4864 9.56758 63.044 9.56758 63.6515H10.9676ZM11.1306 63.242C11.2664 63.1388 11.4943 63.0507 11.8848 63.0507V61.6507C11.2909 61.6507 10.7336 61.7853 10.2835 62.1274L11.1306 63.242ZM11.8848 63.0507C12.0715 63.0507 12.2634 63.0829 12.4634 63.1525L12.9233 61.8302C12.5842 61.7122 12.2371 61.6507 11.8848 61.6507V63.0507ZM12.4811 63.1584C12.7147 63.2327 12.9357 63.317 13.1444 63.4109L13.7189 62.1342C13.4588 62.0172 13.1876 61.914 12.9056 61.8243L12.4811 63.1584ZM13.132 63.4052C13.343 63.5052 13.5198 63.5965 13.6644 63.6792L14.359 62.4636C14.1756 62.3588 13.9656 62.2509 13.7313 62.14L13.132 63.4052ZM13.6987 63.6975C13.7854 63.7409 13.8632 63.7783 13.9296 63.8078C13.9826 63.8313 14.07 63.869 14.1583 63.8911L14.4979 62.5329C14.5262 62.54 14.5411 62.5463 14.5333 62.5433C14.5288 62.5416 14.5177 62.5371 14.4982 62.5284C14.459 62.511 14.4021 62.484 14.3248 62.4453L13.6987 63.6975ZM14.6713 63.8221C15.4484 63.385 16.1425 62.9252 16.7504 62.4414L15.8785 61.346C15.338 61.7762 14.7078 62.1953 13.9849 62.6019L14.6713 63.8221ZM16.7504 62.4414C17.3105 61.9956 17.863 61.5913 18.4078 61.2281L17.6312 60.0632C17.0511 60.45 16.4668 60.8777 15.8785 61.346L16.7504 62.4414ZM18.4161 61.2225C18.9343 60.8662 19.484 60.5752 20.0662 60.3488L19.5588 59.044C18.8753 59.3098 18.2298 59.6516 17.623 60.0688L18.4161 61.2225ZM20.0662 60.3488C20.6001 60.1412 21.2546 60.0273 22.0449 60.0273V58.6273C21.1243 58.6273 20.2905 58.7595 19.5588 59.044L20.0662 60.3488ZM22.0449 60.0273C22.2169 60.0273 22.3971 60.0416 22.5861 60.0714L22.8045 58.6886C22.5482 58.6481 22.2948 58.6273 22.0449 58.6273V60.0273ZM22.622 60.0762C22.8059 60.0955 22.975 60.1288 23.1306 60.1746L23.5256 58.8315C23.2828 58.7601 23.0301 58.7114 22.7686 58.6838L22.622 60.0762ZM24.0153 59.3694C23.9217 58.8884 23.7708 58.4472 23.5533 58.0557L22.3295 58.7356C22.4635 58.9768 22.5705 59.2739 22.641 59.6367L24.0153 59.3694ZM23.5584 58.0651C23.3575 57.6899 23.123 57.3558 22.8512 57.0698L21.8363 58.034C22.0098 58.2167 22.1738 58.4451 22.3244 58.7262L23.5584 58.0651ZM22.8506 57.0691C22.5733 56.7779 22.2675 56.5343 21.9323 56.3448L21.2435 57.5636C21.4473 57.6788 21.6455 57.8337 21.8369 58.0346L22.8506 57.0691ZM21.9519 56.3563C21.6427 56.1681 21.319 56.0129 20.9812 55.8913L20.507 57.2085C20.7552 57.2979 20.994 57.4122 21.2239 57.5522L21.9519 56.3563ZM20.9924 55.8954C20.6763 55.7755 20.5189 55.6804 20.458 55.6288L19.5537 56.6976C19.7975 56.9039 20.1323 57.0665 20.4959 57.2044L20.9924 55.8954ZM20.458 55.6288C20.4372 55.6112 20.4438 55.6112 20.4555 55.6337C20.4614 55.645 20.4673 55.6596 20.4715 55.6767C20.4757 55.6939 20.4773 55.7101 20.4773 55.7238H19.0773C19.0773 56.138 19.2814 56.4672 19.5537 56.6976L20.458 55.6288ZM20.4773 55.7238C20.4773 55.73 20.476 55.731 20.4784 55.7242C20.4811 55.7164 20.4893 55.6966 20.5111 55.6652L19.36 54.8683C19.1913 55.112 19.0773 55.4007 19.0773 55.7238H20.4773ZM20.5433 55.614C20.5903 55.5318 20.6513 55.4613 20.7315 55.3997L19.8779 54.29C19.6534 54.4627 19.4683 54.6735 19.3278 54.9194L20.5433 55.614ZM20.7568 55.3792C20.8623 55.29 20.9619 55.2293 21.055 55.1894L20.5036 53.9026C20.2686 54.0033 20.0518 54.1419 19.8525 54.3105L20.7568 55.3792ZM21.0923 55.1721C21.1424 55.1471 21.1783 55.1342 21.2009 55.1278C21.2235 55.1215 21.2283 55.123 21.2188 55.123V53.723C20.9451 53.723 20.6891 53.8085 20.4662 53.9199L21.0923 55.1721ZM21.2188 55.123C21.278 55.123 21.4001 55.1407 21.6024 55.2177L22.1008 53.9095C21.8108 53.799 21.511 53.723 21.2188 53.723V55.123ZM21.6024 55.2177C21.7978 55.2922 22.0075 55.3983 22.2316 55.5409L22.9832 54.3597C22.6917 54.1742 22.3975 54.0225 22.1008 53.9095L21.6024 55.2177ZM22.2513 55.553C22.478 55.6869 22.7019 55.8428 22.9228 56.0217L23.8037 54.9336C23.5325 54.714 23.2525 54.5184 22.9635 54.3477L22.2513 55.553ZM22.9099 56.011C23.1174 56.1873 23.2935 56.3643 23.4408 56.541L24.5163 55.6448C24.312 55.3996 24.0779 55.1664 23.8166 54.9443L22.9099 56.011ZM23.4352 56.5343C23.8443 57.0378 24.1982 57.6399 24.4922 58.3477L25.7851 57.8107C25.4463 56.9951 25.0268 56.273 24.5218 55.6515L23.4352 56.5343ZM24.4887 58.3392C24.7588 59.0143 24.942 59.8821 25.0206 60.9602L26.4169 60.8584C26.3314 59.6865 26.1279 58.6675 25.7886 57.8192L24.4887 58.3392ZM25.1893 61.3672C25.5065 61.734 25.7723 62.1792 25.9811 62.7117L27.2845 62.2006C27.0246 61.5378 26.681 60.9518 26.2482 60.4514L25.1893 61.3672ZM25.9874 62.7272C26.1921 63.2146 26.302 63.7824 26.302 64.4425H27.702C27.702 63.626 27.5657 62.8696 27.2782 62.1851L25.9874 62.7272ZM26.302 64.4425C26.302 64.7589 26.2624 65.0917 26.1799 65.4423L27.5427 65.763C27.6477 65.3167 27.702 64.8761 27.702 64.4425H26.302ZM26.181 65.4377C26.096 65.7887 25.9845 66.1283 25.8467 66.4569L27.1377 66.9984C27.3046 66.6005 27.4392 66.1901 27.5416 65.7676L26.181 65.4377ZM25.8423 66.4677C25.714 66.7883 25.572 67.0766 25.4173 67.3343L26.6178 68.0546C26.8147 67.7264 26.9891 67.3702 27.1421 66.9876L25.8423 66.4677ZM25.4173 67.3343C25.2609 67.5951 25.1187 67.7792 24.9953 67.9026L25.9852 68.8926C26.2133 68.6644 26.4227 68.3798 26.6178 68.0546L25.4173 67.3343ZM24.9821 67.9162C24.6125 68.3062 24.2897 68.5071 24.0201 68.5895L24.4292 69.9284C25.0033 69.7529 25.5242 69.3795 25.9984 68.879L24.9821 67.9162ZM24.0251 68.5879C23.6698 68.6936 23.4037 68.7022 23.2063 68.6613L22.9226 70.0323C23.4049 70.1321 23.9122 70.0821 24.4241 69.9299L24.0251 68.5879ZM23.1834 68.657C22.9436 68.6156 22.7971 68.5378 22.7033 68.4545L21.7732 69.5008C22.1014 69.7925 22.5056 69.9608 22.9455 70.0366L23.1834 68.657ZM22.6892 68.4422C22.6222 68.3858 22.5991 68.3509 22.5944 68.3427C22.5926 68.3396 22.5955 68.3438 22.5986 68.3549C22.6019 68.3665 22.6043 68.3813 22.6043 68.3976H21.2043C21.2043 68.8843 21.4816 69.2556 21.7874 69.5131L22.6892 68.4422ZM22.6043 68.3976C22.6043 68.4328 22.5983 68.4298 22.6161 68.3686C22.632 68.3139 22.6602 68.235 22.7059 68.1284L21.4191 67.5769C21.3122 67.8264 21.2043 68.1242 21.2043 68.3976H22.6043ZM22.7204 68.0919C22.8025 67.866 22.9195 67.5984 23.0753 67.2868L21.8231 66.6607C21.6508 67.0054 21.51 67.3237 21.4046 67.6134L22.7204 68.0919ZM23.0841 67.2685C23.2374 66.9384 23.4022 66.5793 23.5787 66.1911L22.3041 65.6118C22.129 65.9971 21.9657 66.3528 21.8143 66.679L23.0841 67.2685ZM23.5787 66.1911C23.7569 65.7991 23.9292 65.4069 24.0956 65.0147L22.8068 64.4679C22.645 64.8491 22.4775 65.2304 22.3041 65.6118L23.5787 66.1911ZM24.1025 64.9979C24.262 64.593 24.3981 64.1975 24.5101 63.8115L23.1656 63.4212C23.0668 63.7617 22.9451 64.1162 22.7999 64.4848L24.1025 64.9979ZM24.517 63.7861C24.6211 63.3697 24.6785 62.9716 24.6785 62.5968H23.2785C23.2785 62.8314 23.2422 63.113 23.1588 63.4466L24.517 63.7861ZM24.4319 62.0634C24.1278 61.805 23.7501 61.5898 23.3203 61.4075L22.7735 62.6963C23.1171 62.842 23.3605 62.9902 23.5252 63.1302L24.4319 62.0634ZM23.3203 61.4075C22.8397 61.2036 22.3239 61.1058 21.7813 61.1058V62.5058C22.1527 62.5058 22.4806 62.572 22.7735 62.6963L23.3203 61.4075ZM21.7813 61.1058C21.1552 61.1058 20.5615 61.1906 20.0052 61.367L20.4284 62.7016C20.833 62.5733 21.2823 62.5058 21.7813 62.5058V61.1058ZM20.0052 61.367C19.4756 61.535 18.9801 61.7561 18.5207 62.0317L19.241 63.2322C19.602 63.0156 19.9971 62.8383 20.4284 62.7016L20.0052 61.367ZM18.5207 62.0317C18.0725 62.3007 17.6553 62.6086 17.27 62.9554L18.2066 63.996C18.5243 63.71 18.8689 63.4554 19.241 63.2322L18.5207 62.0317ZM17.2885 62.9394C16.9104 63.2564 16.5554 63.5807 16.2238 63.9124L17.2137 64.9023C17.5149 64.6012 17.8396 64.3044 18.1881 64.012L17.2885 62.9394ZM16.455 65.0558C17.164 65.3442 17.8683 65.597 18.5679 65.8142L18.9829 64.4771C18.3231 64.2723 17.6563 64.033 16.9825 63.7589L16.455 65.0558ZM18.5646 65.8131C19.243 66.0274 20.0136 66.2526 20.8756 66.4887L21.2455 65.1385C20.3965 64.9059 19.6437 64.6858 18.9862 64.4781L18.5646 65.8131ZM17.5801 45.3688L17.3587 46.033L17.3688 46.0362L17.5801 45.3688ZM19.584 46.3884L19.1741 46.9558L19.1761 46.9572L19.584 46.3884ZM21.2715 48.0583L21.8315 47.6383L21.8303 47.6367L21.2715 48.0583ZM22.3965 50.3434L21.7255 50.5429L21.9412 51.2685L22.6478 50.9968L22.3965 50.3434ZM23.2754 49.8864L23.6637 50.4688L23.6778 50.4594L23.6915 50.4493L23.2754 49.8864ZM24.4531 48.2516L25.1172 48.473L25.1193 48.4665L24.4531 48.2516ZM24.2422 45.193L24.8655 44.8742L24.8594 44.8629L24.2422 45.193ZM23.1875 43.9274L22.7466 44.4712L22.7557 44.4784L23.1875 43.9274ZM20.0938 42.6091L19.9526 43.2947L19.9621 43.2966L20.0938 42.6091ZM19.3027 42.1169L19.9229 41.792L19.9173 41.7817L19.3027 42.1169ZM19.1973 41.3434L19.8726 41.5276L19.8746 41.5201L19.1973 41.3434ZM19.6543 40.6579L20.0916 41.2045L20.1067 41.1924L20.1211 41.1796L19.6543 40.6579ZM20.4629 40.4118L20.5525 39.7174L20.5402 39.7161L20.4629 40.4118ZM21.7109 40.6579L21.5412 41.337L21.5492 41.339L21.5573 41.3408L21.7109 40.6579ZM24.5586 42.0114L24.1386 42.5714L24.1409 42.5731L24.5586 42.0114ZM26.5098 49.7809L25.8653 49.5075L25.8633 49.5124L26.5098 49.7809ZM25.1387 51.82L25.6239 52.3247L25.6336 52.315L25.1387 51.82ZM22.9063 53.2438L23.1633 53.895L23.1736 53.8907L22.9063 53.2438ZM16.7188 53.2966L16.9353 52.6309L16.933 52.6301L16.7188 53.2966ZM12.5 50.2907L13.0984 49.9274L13.0936 49.9197L12.5 50.2907ZM12.1484 46.9157L12.7889 47.1983L12.7918 47.1914L12.1484 46.9157ZM12.9043 45.8786L13.3599 46.4102L13.3694 46.4018L12.9043 45.8786ZM14.0469 45.2458L14.2577 45.9133L14.2656 45.9108L14.2735 45.9081L14.0469 45.2458ZM19.7773 50.818V50.118H19.7607L19.744 50.1188L19.7773 50.818ZM20.4277 50.7829V51.4829H21.5339L21.0604 50.4832L20.4277 50.7829ZM17.123 48.0407L17.3154 47.3676L17.3112 47.3665L17.123 48.0407ZM14.627 48.0407L14.9777 48.6465L14.9893 48.6397L15.0007 48.6325L14.627 48.0407ZM14.5918 49.3766L14.0584 49.83L14.0642 49.8368L14.0701 49.8434L14.5918 49.3766ZM15.3828 49.9743L15.0522 50.5914L15.0606 50.5957L15.3828 49.9743ZM16.4727 50.3962L16.2803 51.0694L16.2935 51.0729L16.4727 50.3962ZM18.8633 50.8005L18.9083 50.1019L18.9069 50.1018L18.8633 50.8005ZM15.5234 45.7173C16.1084 45.7173 16.7192 45.8197 17.3587 46.0329L17.8014 44.7048C17.0347 44.4492 16.2744 44.3173 15.5234 44.3173V45.7173ZM17.3688 46.0362C17.9968 46.235 18.5982 46.5399 19.1741 46.9558L19.9938 45.8209C19.3041 45.3228 18.5696 44.9479 17.7914 44.7015L17.3688 46.0362ZM19.1761 46.9572C19.7346 47.3576 20.2473 47.863 20.7127 48.4798L21.8303 47.6367C21.2878 46.9176 20.6756 46.3097 19.9919 45.8195L19.1761 46.9572ZM20.7115 48.4783C21.149 49.0617 21.4889 49.7471 21.7255 50.5429L23.0675 50.144C22.7884 49.2054 22.3783 48.3674 21.8315 47.6383L20.7115 48.4783ZM22.6478 50.9968C23.0023 50.8604 23.341 50.6839 23.6637 50.4688L22.8871 49.304C22.6472 49.4639 22.4001 49.5921 22.1452 49.6901L22.6478 50.9968ZM23.6915 50.4493C24.017 50.2087 24.3008 49.9249 24.5414 49.5994L23.4156 48.7672C23.2577 48.9808 23.0729 49.1656 22.8593 49.3235L23.6915 50.4493ZM24.5414 49.5994C24.7888 49.2647 24.9792 48.8871 25.1172 48.473L23.789 48.0303C23.6927 48.3193 23.5667 48.5628 23.4156 48.7672L24.5414 49.5994ZM25.1193 48.4665C25.2633 48.0201 25.3289 47.5293 25.3289 47.0036H23.9289C23.9289 47.4154 23.8773 47.7566 23.7869 48.0367L25.1193 48.4665ZM25.3289 47.0036C25.3289 46.2159 25.1844 45.4979 24.8654 44.8742L23.619 45.5119C23.8156 45.8961 23.9289 46.385 23.9289 47.0036H25.3289ZM24.8594 44.8629C24.5458 44.2766 24.1322 43.7785 23.6193 43.3765L22.7557 44.4784C23.1099 44.756 23.3995 45.1017 23.6249 45.5232L24.8594 44.8629ZM23.6284 43.3837C23.1367 42.9851 22.5873 42.668 21.9836 42.4318L21.4734 43.7355C21.9479 43.9212 22.3711 44.1666 22.7466 44.4711L23.6284 43.3837ZM21.9836 42.4318C21.4059 42.2057 20.8197 42.0354 20.2254 41.9216L19.9621 43.2966C20.4694 43.3937 20.9731 43.5397 21.4734 43.7355L21.9836 42.4318ZM20.2349 41.9234C20.093 41.8942 20.0106 41.8573 19.967 41.8302C19.9462 41.8172 19.9354 41.8072 19.9304 41.802C19.9257 41.7972 19.9239 41.7942 19.9228 41.7921L18.6827 42.4417C18.9476 42.9475 19.4469 43.1906 19.9526 43.2947L20.2349 41.9234ZM19.9173 41.7817C19.8539 41.6655 19.8548 41.593 19.8726 41.5276L18.5219 41.1593C18.3991 41.6095 18.4703 42.0526 18.6882 42.4521L19.9173 41.7817ZM19.8746 41.5201C19.9038 41.4081 19.9653 41.3055 20.0916 41.2045L19.217 40.1113C18.8745 40.3853 18.6313 40.7397 18.5199 41.1667L19.8746 41.5201ZM20.1211 41.1796C20.1847 41.1226 20.2524 41.0927 20.3856 41.1075L20.5402 39.7161C20.0406 39.6606 19.5692 39.7948 19.1875 40.1362L20.1211 41.1796ZM20.3733 41.106C20.7027 41.1485 21.091 41.2245 21.5412 41.337L21.8807 39.9788C21.3933 39.8569 20.9497 39.7688 20.5525 39.7176L20.3733 41.106ZM21.5573 41.3408C21.9729 41.4343 22.4005 41.5813 22.8404 41.7852L23.4291 40.515C22.9081 40.2735 22.3864 40.0924 21.8646 39.975L21.5573 41.3408ZM22.8404 41.7852C23.2721 41.9852 23.7049 42.2461 24.1386 42.5714L24.9786 41.4514C24.4748 41.0735 23.9584 40.7602 23.4291 40.515L22.8404 41.7852ZM24.1409 42.5731C24.5354 42.8665 24.8961 43.2354 25.2212 43.6864L26.3569 42.8677C25.9554 42.3108 25.4958 41.836 24.9763 41.4497L24.1409 42.5731ZM25.2212 43.6864C25.5366 44.1238 25.7992 44.6489 26.0028 45.2703L27.3332 44.8345C27.0914 44.0965 26.7681 43.4381 26.3569 42.8677L25.2212 43.6864ZM26.0028 45.2703C26.1978 45.8657 26.302 46.5691 26.302 47.3903H27.702C27.702 46.4537 27.5835 45.5985 27.3332 44.8345L26.0028 45.2703ZM26.302 47.3903C26.302 48.1144 26.1577 48.8184 25.8654 49.5076L27.1542 50.0543C27.5181 49.1966 27.702 48.3069 27.702 47.3903H26.302ZM25.8633 49.5124C25.583 50.1873 25.1782 50.7906 24.6437 51.325L25.6336 52.315C26.2945 51.6541 26.8038 50.898 27.1562 50.0495L25.8633 49.5124ZM24.6535 51.3154C24.1146 51.8336 23.447 52.2629 22.6389 52.5969L23.1736 53.8907C24.1233 53.4982 24.944 52.9783 25.6238 52.3246L24.6535 51.3154ZM22.6492 52.5927C21.8534 52.9069 20.9349 53.0712 19.8828 53.0712V54.4712C21.0807 54.4712 22.1778 54.2839 23.1633 53.8949L22.6492 52.5927ZM19.8828 53.0712C18.8115 53.0712 17.8307 52.9222 16.9353 52.6309L16.5022 53.9622C17.5521 54.3038 18.6807 54.4712 19.8828 54.4712V53.0712ZM16.933 52.6301C16.0067 52.3324 15.2255 51.9468 14.5794 51.4808L13.7604 52.6162C14.5441 53.1815 15.4621 53.6279 16.5045 53.963L16.933 52.6301ZM14.5794 51.4808C13.9294 51.0119 13.4415 50.4926 13.0984 49.9274L11.9016 50.654C12.3554 51.4013 12.9807 52.0538 13.7604 52.6162L14.5794 51.4808ZM13.0936 49.9197C12.7444 49.361 12.5848 48.8142 12.5848 48.2692H11.1848C11.1848 49.107 11.4353 49.9079 11.9064 50.6617L13.0936 49.9197ZM12.5848 48.2692C12.5848 47.8474 12.6581 47.4948 12.7889 47.1982L11.508 46.6332C11.2872 47.1335 11.1848 47.6832 11.1848 48.2692H12.5848ZM12.7918 47.1914C12.9268 46.8765 13.1158 46.6193 13.3598 46.4101L12.4487 45.3471C12.0366 45.7004 11.7216 46.1346 11.505 46.64L12.7918 47.1914ZM13.3694 46.4018C13.6048 46.1925 13.8966 46.0273 14.2577 45.9133L13.8361 44.5783C13.3066 44.7455 12.8366 45.0022 12.4392 45.3554L13.3694 46.4018ZM14.2735 45.9081C14.6361 45.784 15.0504 45.7173 15.5234 45.7173V44.3173C14.9183 44.3173 14.3483 44.4028 13.8203 44.5835L14.2735 45.9081ZM19.7773 51.518C19.9088 51.518 20.0401 51.5107 20.1711 51.4962L20.0164 50.1048C19.9365 50.1136 19.8568 50.118 19.7773 50.118V51.518ZM20.1711 51.4962C20.2484 51.4876 20.3337 51.4829 20.4277 51.4829V50.0829C20.2873 50.0829 20.1501 50.0899 20.0164 50.1048L20.1711 51.4962ZM21.0604 50.4832C20.8204 49.9766 20.5128 49.5151 20.1386 49.1008L19.0997 50.0392C19.3817 50.3515 19.6132 50.6986 19.7951 51.0826L21.0604 50.4832ZM20.1386 49.1008C19.765 48.6871 19.3378 48.3336 18.8592 48.0411L18.1291 49.2357C18.4942 49.4588 18.8171 49.7263 19.0997 50.0392L20.1386 49.1008ZM18.8592 48.0411C18.3815 47.7492 17.8661 47.525 17.3154 47.3676L16.9307 48.7138C17.3644 48.8377 17.763 49.0119 18.1291 49.2357L18.8592 48.0411ZM17.3112 47.3665C16.7442 47.2082 16.1593 47.1298 15.5586 47.1298V48.5298C16.036 48.5298 16.4941 48.5919 16.9349 48.7149L17.3112 47.3665ZM15.5586 47.1298C15.091 47.1298 14.6312 47.2101 14.2532 47.4489L15.0007 48.6325C15.068 48.59 15.2293 48.5298 15.5586 48.5298V47.1298ZM14.2762 47.4349C13.863 47.6741 13.593 48.0732 13.593 48.5856H14.993C14.993 48.5828 14.9933 48.5887 14.99 48.6007C14.9867 48.6131 14.9811 48.6267 14.9733 48.6394C14.9567 48.6664 14.9463 48.6647 14.9777 48.6465L14.2762 47.4349ZM13.593 48.5856C13.593 49.0535 13.7575 49.4759 14.0584 49.83L15.1252 48.9233C15.0277 48.8086 14.993 48.7037 14.993 48.5856H13.593ZM14.0701 49.8434C14.3353 50.1398 14.6692 50.3861 15.0523 50.5913L15.7134 49.3573C15.4402 49.2109 15.2467 49.0588 15.1135 48.9099L14.0701 49.8434ZM15.0606 50.5957C15.4256 50.785 15.8337 50.9416 16.2804 51.0692L16.665 49.7231C16.2913 49.6163 15.9728 49.4917 15.705 49.3529L15.0606 50.5957ZM16.2935 51.0729C16.7122 51.1837 17.1368 51.276 17.5673 51.3498L17.8038 49.9699C17.4139 49.9031 17.0299 49.8196 16.6518 49.7195L16.2935 51.0729ZM17.5673 51.3498C17.9995 51.4239 18.4171 51.4739 18.8196 51.4991L18.9069 50.1018C18.5594 50.0801 18.1919 50.0364 17.8038 49.9699L17.5673 51.3498ZM18.8182 51.499C19.1965 51.5234 19.5293 51.5307 19.8106 51.5173L19.744 50.1188C19.5332 50.1289 19.2566 50.1244 18.9083 50.1019L18.8182 51.499ZM27.2129 36.1741L26.5575 35.9283L26.5529 35.9404L26.5488 35.9527L27.2129 36.1741ZM26.8262 36.8245L26.3499 36.3115L25.0436 37.5245H26.8262V36.8245ZM39.3242 37.0178L38.9439 37.6055L38.9515 37.6104L38.9592 37.6151L39.3242 37.0178ZM39.8164 37.51L39.2131 37.8649L39.2178 37.873L39.2228 37.881L39.8164 37.51ZM40.0449 38.1252L39.3535 38.2344L39.3563 38.252L39.3599 38.2694L40.0449 38.1252ZM13.3965 39.6194L13.5539 40.3015L13.5783 40.2958L13.6023 40.2884L13.3965 39.6194ZM13.0449 39.7424L13.2907 40.3979L13.3434 40.3781L13.3922 40.3502L13.0449 39.7424ZM12.834 39.8655L13.1941 40.4657L13.268 40.4214L13.329 40.3604L12.834 39.8655ZM12.2891 39.1623L12.9862 39.099L12.9838 39.073L12.9795 39.0473L12.2891 39.1623ZM12.7285 37.387L13.2408 37.8639L13.2493 37.8548L13.2575 37.8454L12.7285 37.387ZM13.8008 36.8245L13.8407 37.5233L15.8983 37.4057L14.1947 36.2458L13.8008 36.8245ZM12.377 31.7092L12.9675 32.0851L12.9713 32.079L12.377 31.7092ZM13.7305 30.4084L14.087 31.0108L14.0943 31.0065L14.1015 31.002L13.7305 30.4084ZM15.7344 29.635L15.8796 30.3198L15.8895 30.3176L15.7344 29.635ZM21.1309 29.635L21.2631 28.9476L21.2614 28.9473L21.1309 29.635ZM23.4863 30.303L23.2204 30.9505L24.2505 31.3736L24.1851 30.2619L23.4863 30.303ZM22.7129 27.8596L23.2427 27.4021L23.2411 27.4003L22.7129 27.8596ZM21.8691 27.1741L21.5059 27.7724L21.5138 27.7772L21.5218 27.7818L21.8691 27.1741ZM20.7441 26.5588L21.0572 25.9327L21.0485 25.9284L20.7441 26.5588ZM20.0059 26.1545L19.5791 26.7094L19.593 26.7201L19.6074 26.7301L20.0059 26.1545ZM19.918 25.2756L20.5141 25.6425L20.5201 25.6328L20.5257 25.6229L19.918 25.2756ZM20.2695 24.8538L20.7177 25.3915L20.7304 25.3809L20.7425 25.3698L20.2695 24.8538ZM20.7266 24.5549L21.0023 25.1983L21.031 25.186L21.0584 25.1713L20.7266 24.5549ZM24.0488 26.1545L23.5022 26.5918L23.5066 26.5972L24.0488 26.1545ZM25.2441 28.3518L25.9028 28.1147L25.901 28.1098L25.2441 28.3518ZM25.7188 31.4631H25.0187V31.7673L25.2411 31.9749L25.7188 31.4631ZM26.9316 33.1682L26.29 33.4482L26.2944 33.4579L26.9316 33.1682ZM14.5215 35.2073L13.9263 35.5757L13.9304 35.5823L13.9346 35.5888L14.5215 35.2073ZM15.1543 35.8752L15.5976 35.3335L15.5917 35.3287L15.5857 35.324L15.1543 35.8752ZM16.1035 36.4377L15.8229 37.079L15.8314 37.0828L15.8401 37.0863L16.1035 36.4377ZM17.3164 36.8245L17.151 37.5046L17.2325 37.5245H17.3164V36.8245ZM25.1035 36.8245V37.5245H27.3573L25.5001 36.2476L25.1035 36.8245ZM23.8379 33.4319L24.5354 33.3729L24.507 33.0366L24.2262 32.8494L23.8379 33.4319ZM22.7129 32.887L22.4709 33.5439L22.4809 33.5474L22.7129 32.887ZM19.9707 32.2541L19.8794 32.9482L19.8884 32.9493L19.8974 32.9503L19.9707 32.2541ZM16.7012 32.3596L16.8412 33.0456L16.8545 33.0426L16.7012 32.3596ZM15.3125 32.8518L15.664 33.4572L15.6726 33.452L15.3125 32.8518ZM14.5391 33.5901L15.137 33.954L15.1462 33.939L15.1546 33.9235L14.5391 33.5901ZM26.6711 35.0842C26.6711 35.4823 26.6229 35.7539 26.5575 35.9283L27.8683 36.4199C28.0139 36.0318 28.0711 35.5768 28.0711 35.0842H26.6711ZM26.5488 35.9527C26.4806 36.1574 26.4045 36.2608 26.3499 36.3115L27.3025 37.3374C27.576 37.0834 27.7577 36.7532 27.877 36.3954L26.5488 35.9527ZM26.8262 37.5245H38.5332V36.1245H26.8262V37.5245ZM38.5332 37.5245C38.7762 37.5245 38.8936 37.573 38.9439 37.6055L39.7045 36.4301C39.3564 36.2049 38.9464 36.1245 38.5332 36.1245V37.5245ZM38.9592 37.6151C39.079 37.6883 39.1582 37.7717 39.2131 37.8649L40.4198 37.1551C40.2402 36.8499 39.9913 36.6051 39.6892 36.4205L38.9592 37.6151ZM39.2228 37.881C39.2891 37.9871 39.3327 38.1029 39.3535 38.2344L40.7364 38.0161C40.6868 37.7023 40.5781 37.4079 40.41 37.139L39.2228 37.881ZM39.3599 38.2694C39.3996 38.4577 39.4152 38.6073 39.4152 38.7229H40.8152C40.8152 38.4869 40.784 38.2381 40.7299 37.981L39.3599 38.2694ZM39.4152 38.7229C39.4152 38.7845 39.4112 38.8295 39.4063 38.8606C39.4013 38.8919 39.3963 38.9034 39.3973 38.9011C39.3986 38.898 39.4072 38.8783 39.4296 38.8526C39.4532 38.8256 39.4846 38.8005 39.5209 38.7823L40.147 40.0345C40.7108 39.7527 40.8152 39.148 40.8152 38.7229H39.4152ZM39.5209 38.7823C39.4544 38.8156 39.3394 38.8491 39.1484 38.8491V40.2491C39.4966 40.2491 39.8386 40.1888 40.147 40.0345L39.5209 38.7823ZM39.1484 38.8491H14.0117V40.2491H39.1484V38.8491ZM14.0117 38.8491C13.7215 38.8491 13.4379 38.8743 13.1906 38.9503L13.6023 40.2884C13.6598 40.2707 13.7863 40.2491 14.0117 40.2491V38.8491ZM13.2391 38.9373C13.0576 38.9792 12.865 39.039 12.6976 39.1347L13.3922 40.3502C13.3868 40.3533 13.3955 40.3477 13.4256 40.3372C13.4547 40.327 13.4966 40.3147 13.5539 40.3015L13.2391 38.9373ZM12.7991 39.087C12.6552 39.141 12.4832 39.2263 12.339 39.3705L13.329 40.3604C13.3015 40.3879 13.2801 40.401 13.2746 40.4042C13.2689 40.4075 13.2728 40.4046 13.2907 40.3979L12.7991 39.087ZM12.4738 39.2652C12.4982 39.2506 12.5265 39.2381 12.5575 39.2297C12.5884 39.2213 12.6168 39.2182 12.6406 39.2182V40.6182C12.8339 40.6182 13.0235 40.5681 13.1941 40.4657L12.4738 39.2652ZM12.6406 39.2182C12.7609 39.2182 12.8666 39.2569 12.9454 39.3094C13.017 39.3571 13.0532 39.4069 13.0649 39.4244L11.9 40.201C12.0149 40.3734 12.2551 40.6182 12.6406 40.6182V39.2182ZM13.0649 39.4244C13.0683 39.4296 13.0652 39.426 13.0578 39.4091C13.0506 39.3925 13.0408 39.3669 13.0299 39.3303L11.6889 39.7326C11.7359 39.8893 11.8017 40.0536 11.9 40.201L13.0649 39.4244ZM13.0299 39.3303C13.0089 39.2606 12.9939 39.1839 12.9862 39.099L11.5919 39.2257C11.6077 39.3986 11.6395 39.568 11.6889 39.7326L13.0299 39.3303ZM12.9795 39.0473C12.9618 38.9407 12.9539 38.8446 12.9539 38.758H11.5539C11.5539 38.9293 11.5695 39.1027 11.5986 39.2774L12.9795 39.0473ZM12.9539 38.758C12.9539 38.3169 13.072 38.0453 13.2408 37.8639L12.2162 36.91C11.7522 37.4083 11.5539 38.0507 11.5539 38.758H12.9539ZM13.2575 37.8454C13.4563 37.616 13.6451 37.5345 13.8407 37.5233L13.7608 36.1256C13.1362 36.1613 12.6101 36.4547 12.1995 36.9285L13.2575 37.8454ZM14.1947 36.2458C13.7125 35.9175 13.3183 35.527 13.0061 35.0738L11.8532 35.868C12.2676 36.4695 12.7875 36.9814 13.4068 37.4031L14.1947 36.2458ZM13.0061 35.0738C12.7376 34.684 12.5848 34.1847 12.5848 33.5373H11.1848C11.1848 34.4134 11.3952 35.2032 11.8532 35.868L13.0061 35.0738ZM12.5848 33.5373C12.5848 32.9469 12.7211 32.4722 12.9675 32.085L11.7864 31.3334C11.3765 31.9775 11.1848 32.7216 11.1848 33.5373H12.5848ZM12.9713 32.079C13.2356 31.6542 13.6022 31.2978 14.087 31.0108L13.3739 29.806C12.7103 30.1988 12.1745 30.7095 11.7826 31.3394L12.9713 32.079ZM14.1015 31.002C14.5827 30.7012 15.1712 30.47 15.8796 30.3198L15.5891 28.9502C14.7507 29.1281 14.0032 29.4125 13.3595 29.8148L14.1015 31.002ZM15.8895 30.3176C16.6063 30.1547 17.3858 30.0713 18.2305 30.0713V28.6713C17.2939 28.6713 16.4094 28.7637 15.5792 28.9524L15.8895 30.3176ZM18.2305 30.0713C19.1975 30.0713 20.1204 30.1556 21.0003 30.3227L21.2614 28.9473C20.2897 28.7628 19.2791 28.6713 18.2305 28.6713V30.0713ZM20.9987 30.3224C21.8802 30.4919 22.6182 30.7032 23.2204 30.9505L23.7523 29.6555C23.0419 29.3637 22.2096 29.1296 21.2631 28.9476L20.9987 30.3224ZM24.1851 30.2619C24.1479 29.6287 24.0594 29.0704 23.9043 28.605L22.5762 29.0478C22.6789 29.3559 22.7545 29.7819 22.7875 30.3441L24.1851 30.2619ZM23.9043 28.605C23.7521 28.1483 23.5356 27.7413 23.2427 27.4021L22.1831 28.3171C22.3355 28.4936 22.4706 28.7311 22.5762 29.0478L23.9043 28.605ZM23.2411 27.4003C22.9523 27.0681 22.6088 26.7905 22.2164 26.5663L21.5218 27.7818C21.7857 27.9326 22.0048 28.1121 22.1847 28.3189L23.2411 27.4003ZM22.2324 26.5757C21.8848 26.3646 21.4925 26.1504 21.0572 25.9327L20.4311 27.1849C20.8395 27.3892 21.1973 27.5851 21.5059 27.7724L22.2324 26.5757ZM21.0485 25.9284C20.7151 25.7675 20.5097 25.652 20.4043 25.579L19.6074 26.7301C19.8067 26.868 20.0935 27.022 20.4398 27.1892L21.0485 25.9284ZM20.4327 25.5997C20.4188 25.589 20.4329 25.5963 20.45 25.6278C20.4688 25.6626 20.4773 25.7014 20.4773 25.7327H19.0773C19.0773 26.1529 19.2878 26.4853 19.5791 26.7094L20.4327 25.5997ZM20.4773 25.7327C20.4773 25.731 20.4763 25.704 20.5141 25.6425L19.3218 24.9088C19.1722 25.1519 19.0773 25.4297 19.0773 25.7327H20.4773ZM20.5257 25.6229C20.5794 25.529 20.6433 25.4535 20.7177 25.3915L19.8214 24.316C19.6146 24.4884 19.444 24.6941 19.3102 24.9283L20.5257 25.6229ZM20.7425 25.3698C20.8291 25.2904 20.9155 25.2355 21.0023 25.1983L20.4508 23.9115C20.2095 24.015 19.9912 24.1592 19.7965 24.3377L20.7425 25.3698ZM21.0584 25.1713C21.1423 25.1261 21.1682 25.1319 21.1484 25.1319V23.7319C20.8708 23.7319 20.6156 23.8197 20.3947 23.9386L21.0584 25.1713ZM21.1484 25.1319C21.4032 25.1319 21.7562 25.2212 22.2253 25.4714L22.8841 24.2361C22.2985 23.9238 21.714 23.7319 21.1484 23.7319V25.1319ZM22.2253 25.4714C22.6502 25.698 23.0782 26.0618 23.5022 26.5918L24.5954 25.7172C24.082 25.0754 23.5138 24.572 22.8841 24.2361L22.2253 25.4714ZM23.5066 26.5972C23.9147 27.0972 24.2788 27.7565 24.5873 28.5938L25.901 28.1098C25.5532 27.1658 25.1204 26.3603 24.5911 25.7119L23.5066 26.5972ZM24.5855 28.5889C24.8681 29.3738 25.0187 30.3271 25.0187 31.4631H26.4188C26.4188 30.2085 26.253 29.0876 25.9028 28.1147L24.5855 28.5889ZM25.2411 31.9749C25.7004 32.4035 26.0481 32.8936 26.2901 33.4482L27.5732 32.8882C27.2527 32.1538 26.7918 31.5071 26.1964 30.9514L25.2411 31.9749ZM26.2944 33.4579C26.5509 34.0223 26.6711 34.5626 26.6711 35.0842H28.0711C28.0711 34.3402 27.8983 33.6032 27.5689 32.8785L26.2944 33.4579ZM13.593 34.4514C13.593 34.8549 13.7141 35.2329 13.9263 35.5757L15.1167 34.8388C15.0242 34.6895 14.993 34.5636 14.993 34.4514H13.593ZM13.9346 35.5888C14.1373 35.9006 14.4057 36.1782 14.7229 36.4265L15.5857 35.324C15.3639 35.1504 15.2104 34.9827 15.1084 34.8258L13.9346 35.5888ZM14.711 36.417C15.028 36.6764 15.4022 36.895 15.8229 37.079L16.3841 35.7964C16.0548 35.6524 15.7962 35.496 15.5976 35.3335L14.711 36.417ZM15.8401 37.0863C16.2499 37.2528 16.6873 37.3918 17.151 37.5046L17.4819 36.1443C17.0783 36.0461 16.7071 35.9274 16.367 35.7892L15.8401 37.0863ZM17.3164 37.5245H25.1035V36.1245H17.3164V37.5245ZM25.5001 36.2476C25.2872 36.1013 25.0728 35.8273 24.9049 35.3335L23.5794 35.7842C23.81 36.4622 24.1698 37.032 24.7069 37.4013L25.5001 36.2476ZM24.9049 35.3335C24.7291 34.8164 24.6025 34.1666 24.5354 33.3729L23.1404 33.4908C23.2139 34.3612 23.3568 35.1294 23.5794 35.7842L24.9049 35.3335ZM24.2262 32.8494C23.8523 32.6002 23.4226 32.3944 22.9449 32.2265L22.4809 33.5474C22.8703 33.6842 23.1907 33.8417 23.4496 34.0143L24.2262 32.8494ZM22.9549 32.2301C22.4804 32.0553 21.9938 31.9119 21.4955 31.7997L21.1881 33.1656C21.6273 33.2644 22.0548 33.3905 22.4709 33.5438L22.9549 32.2301ZM21.4955 31.7997C21.0021 31.6887 20.5182 31.6079 20.044 31.558L19.8974 32.9503C20.3138 32.9941 20.744 33.0657 21.1881 33.1656L21.4955 31.7997ZM20.062 31.5601C19.5954 31.4987 19.1712 31.4663 18.793 31.4663V32.8662C19.0944 32.8662 19.4554 32.8924 19.8794 32.9482L20.062 31.5601ZM18.793 31.4663C17.9396 31.4663 17.1877 31.533 16.5478 31.6766L16.8545 33.0426C17.3631 32.9284 18.0057 32.8662 18.793 32.8662V31.4663ZM16.5612 31.6738C15.9398 31.8006 15.3943 31.9864 14.9524 32.2516L15.6726 33.452C15.9338 33.2953 16.3141 33.153 16.8411 33.0455L16.5612 31.6738ZM14.961 32.2464C14.5205 32.5022 14.1536 32.832 13.9236 33.2567L15.1546 33.9235C15.2292 33.7857 15.378 33.6232 15.664 33.4572L14.961 32.2464ZM13.9411 33.2261C13.7128 33.6012 13.593 34.0136 13.593 34.4514H14.993C14.993 34.2798 15.0372 34.118 15.137 33.954L13.9411 33.2261ZM21.0605 21.4422L20.8756 22.1173L20.8832 22.1194L20.8908 22.1213L21.0605 21.4422ZM21.7637 21.9695L22.4307 21.7573L22.4264 21.7437L22.4215 21.7303L21.7637 21.9695ZM21.7285 22.743L22.372 23.0187L22.3764 23.008L21.7285 22.743ZM21.1836 23.3758L21.5594 23.9663L21.5688 23.9604L21.5779 23.9541L21.1836 23.3758ZM20.3398 23.5164L20.4973 22.8343L20.4906 22.8328L20.3398 23.5164ZM17.7031 22.7605L17.4722 23.4214L17.4769 23.423L17.7031 22.7605ZM14.8027 21.7586L15.0289 21.0961L14.7061 20.9859L14.4203 21.1723L14.8027 21.7586ZM13.9941 22.1805L14.24 22.836L14.2492 22.8323L13.9941 22.1805ZM12.166 22.0047L11.7686 22.5809L11.773 22.5839L12.166 22.0047ZM11.2344 21.1785L10.7028 21.6341L10.7112 21.6436L11.2344 21.1785ZM10.5488 20.1766L11.1706 19.8549L11.1665 19.8471L10.5488 20.1766ZM10.707 18.3133L11.116 18.8814L11.1234 18.8761L11.1306 18.8706L10.707 18.3133ZM12.6934 18.1199L12.4634 18.7811L12.4722 18.7841L12.4811 18.787L12.6934 18.1199ZM13.4316 18.4012L13.7314 17.7684L13.7189 17.7628L13.4316 18.4012ZM14.0117 18.7L13.6644 19.3078L13.6813 19.3174L13.6987 19.3261L14.0117 18.7ZM14.3281 18.8406L14.1583 19.5197L14.4286 19.5873L14.6713 19.4507L14.3281 18.8406ZM18.0195 16.2742L18.4079 16.8567L18.4161 16.851L18.0195 16.2742ZM22.6953 15.0086L22.5861 15.7L22.604 15.7029L22.622 15.7047L22.6953 15.0086ZM23.3281 15.1316L23.1306 15.8032L24.235 16.128L24.0153 14.998L23.3281 15.1316ZM22.9414 14.0242L22.3243 14.3548L22.3295 14.3642L22.9414 14.0242ZM22.3438 13.1805L22.8512 12.6983L22.8506 12.6977L22.3438 13.1805ZM21.5879 12.5828L21.2239 13.1807L21.2336 13.1866L21.2435 13.1922L21.5879 12.5828ZM20.7441 12.1785L20.4958 12.8331L20.507 12.8371L20.7441 12.1785ZM19.9355 10.8953L20.5111 11.2938L20.5283 11.2689L20.5433 11.2426L19.9355 10.8953ZM20.3047 10.4734L20.7315 11.0283L20.7444 11.0183L20.7568 11.0078L20.3047 10.4734ZM20.7793 10.1746L21.055 10.818L21.0739 10.8099L21.0923 10.8007L20.7793 10.1746ZM22.6074 10.5789L22.2316 11.1695L22.2414 11.1757L22.2513 11.1815L22.6074 10.5789ZM23.3633 11.1062L23.8166 10.5729L23.8102 10.5675L23.8037 10.5622L23.3633 11.1062ZM23.9785 11.7215L24.5218 11.28L24.5163 11.2734L23.9785 11.7215ZM25.1387 13.7078L25.7887 13.4478L25.7851 13.4393L25.1387 13.7078ZM25.7188 16.5379L25.0206 16.5888L25.0375 16.8203L25.1893 16.9958L25.7188 16.5379ZM26.6328 18.0848L25.9811 18.3403L25.9842 18.3481L25.9874 18.3558L26.6328 18.0848ZM26.8613 21.2312L27.5416 21.3962L27.5427 21.3916L26.8613 21.2312ZM26.4922 22.3562L25.8466 22.0855L25.8423 22.0963L26.4922 22.3562ZM25.4902 24.0262L24.9953 23.5312L24.9886 23.5379L24.9821 23.5447L25.4902 24.0262ZM24.2246 24.8875L24.4241 25.5585L24.4292 25.5569L24.2246 24.8875ZM23.0645 24.9754L23.2063 24.2899L23.1949 24.2875L23.1834 24.2856L23.0645 24.9754ZM22.2383 24.6062L22.7033 24.0831L22.6963 24.0768L22.6892 24.0708L22.2383 24.6062ZM22.0625 23.4812L22.7059 23.757L22.7136 23.7389L22.7204 23.7205L22.0625 23.4812ZM22.4492 22.6023L23.0753 22.9154L23.0799 22.9063L23.0841 22.8971L22.4492 22.6023ZM23.4512 20.3699L24.0956 20.6433L24.0991 20.6349L24.1025 20.6265L23.4512 20.3699ZM23.8379 19.2449L24.5101 19.4401L24.5138 19.4275L24.517 19.4147L23.8379 19.2449ZM23.9785 18.2254H24.6785V17.9017L24.4319 17.692L23.9785 18.2254ZM17.7383 19.1043L18.1881 19.6406L18.1975 19.6328L18.2066 19.6246L17.7383 19.1043ZM16.7188 20.0359L16.2238 19.541L15.4779 20.2869L16.455 20.6843L16.7188 20.0359ZM18.7754 20.7742L18.9862 20.1067L18.9829 20.1057L18.7754 20.7742ZM20.8908 22.1213C21.0152 22.1524 21.0747 22.1872 21.0976 22.2043C21.108 22.2121 21.1101 22.2157 21.1088 22.214C21.1083 22.2133 21.1076 22.2122 21.1068 22.2108C21.1061 22.2095 21.1058 22.2087 21.1058 22.2087L22.4215 21.7303C22.2186 21.1722 21.731 20.8883 21.2303 20.7631L20.8908 22.1213ZM21.0966 22.1818C21.1273 22.2782 21.126 22.3671 21.0806 22.4779L22.3764 23.008C22.542 22.6032 22.5641 22.1765 22.4307 21.7573L21.0966 22.1818ZM21.0851 22.4672C21.0404 22.5716 20.9555 22.6841 20.7893 22.7974L21.5779 23.9541C21.9273 23.7159 22.2057 23.4065 22.3719 23.0187L21.0851 22.4672ZM20.8078 22.7852C20.7123 22.8459 20.6239 22.8636 20.4972 22.8343L20.1824 24.1985C20.6652 24.3099 21.1392 24.2337 21.5594 23.9663L20.8078 22.7852ZM20.4906 22.8328C19.7245 22.6638 18.8712 22.4197 17.9293 22.0981L17.4769 23.423C18.4569 23.7576 19.3614 24.0174 20.1891 24.2L20.4906 22.8328ZM17.934 22.0997C16.9598 21.7593 15.9915 21.4248 15.0289 21.0961L14.5765 22.421C15.5359 22.7486 16.5011 23.0821 17.4722 23.4214L17.934 22.0997ZM14.4203 21.1723C14.1865 21.3248 13.9594 21.4424 13.7391 21.5286L14.2492 22.8323C14.5679 22.7076 14.8799 22.544 15.1851 22.3449L14.4203 21.1723ZM13.7484 21.525C13.5468 21.6006 13.3372 21.6387 13.1152 21.6387V23.0387C13.5026 23.0387 13.8789 22.9713 14.2399 22.8359L13.7484 21.525ZM13.1152 21.6387C12.9874 21.6387 12.8058 21.5929 12.5591 21.4255L11.773 22.5839C12.1824 22.8618 12.6337 23.0387 13.1152 23.0387V21.6387ZM12.5634 21.4284C12.271 21.2268 12.0025 20.989 11.7576 20.7135L10.7112 21.6436C11.0288 22.0009 11.3814 22.3139 11.7686 22.5809L12.5634 21.4284ZM11.7659 20.723C11.5153 20.4307 11.3186 20.1411 11.1706 19.855L9.92708 20.4982C10.1306 20.8917 10.3909 21.2701 10.7029 21.6341L11.7659 20.723ZM11.1665 19.8471C11.0032 19.541 10.9676 19.3612 10.9676 19.2801H9.56758C9.56758 19.6911 9.71947 20.109 9.93118 20.506L11.1665 19.8471ZM10.9676 19.2801C10.9676 19.0204 11.0437 18.9334 11.116 18.8814L10.298 17.7452C9.78438 18.115 9.56758 18.6726 9.56758 19.2801H10.9676ZM11.1306 18.8706C11.2664 18.7674 11.4943 18.6793 11.8848 18.6793V17.2793C11.2909 17.2793 10.7336 17.4139 10.2835 17.756L11.1306 18.8706ZM11.8848 18.6793C12.0715 18.6793 12.2634 18.7115 12.4634 18.7811L12.9233 17.4588C12.5842 17.3408 12.2371 17.2793 11.8848 17.2793V18.6793ZM12.4811 18.787C12.7147 18.8613 12.9357 18.9456 13.1444 19.0395L13.7189 17.7628C13.4588 17.6458 13.1876 17.5426 12.9056 17.4529L12.4811 18.787ZM13.132 19.0338C13.343 19.1337 13.5198 19.2251 13.6644 19.3078L14.359 18.0922C14.1756 17.9874 13.9656 17.8795 13.7313 17.7686L13.132 19.0338ZM13.6987 19.3261C13.7854 19.3694 13.8632 19.4069 13.9296 19.4363C13.9826 19.4599 14.07 19.4976 14.1583 19.5197L14.4979 18.1615C14.5262 18.1686 14.5411 18.1749 14.5333 18.1719C14.5288 18.1702 14.5177 18.1657 14.4982 18.157C14.459 18.1396 14.4021 18.1126 14.3248 18.0739L13.6987 19.3261ZM14.6713 19.4507C15.4484 19.0136 16.1425 18.5538 16.7504 18.07L15.8785 16.9746C15.338 17.4048 14.7078 17.8239 13.9849 18.2305L14.6713 19.4507ZM16.7504 18.07C17.3105 17.6241 17.863 17.2199 18.4078 16.8567L17.6312 15.6918C17.0511 16.0786 16.4668 16.5063 15.8785 16.9746L16.7504 18.07ZM18.4161 16.851C18.9343 16.4948 19.484 16.2038 20.0662 15.9774L19.5588 14.6726C18.8753 14.9384 18.2298 15.2802 17.623 15.6974L18.4161 16.851ZM20.0662 15.9774C20.6001 15.7698 21.2546 15.6559 22.0449 15.6559V14.2559C21.1243 14.2559 20.2905 14.388 19.5588 14.6726L20.0662 15.9774ZM22.0449 15.6559C22.2169 15.6559 22.3971 15.6702 22.5861 15.7L22.8045 14.3172C22.5482 14.2767 22.2948 14.2559 22.0449 14.2559V15.6559ZM22.622 15.7047C22.8059 15.7241 22.975 15.7574 23.1306 15.8032L23.5256 14.4601C23.2828 14.3887 23.0301 14.34 22.7686 14.3124L22.622 15.7047ZM24.0153 14.998C23.9217 14.517 23.7708 14.0758 23.5533 13.6843L22.3295 14.3642C22.4635 14.6054 22.5705 14.9025 22.641 15.2652L24.0153 14.998ZM23.5584 13.6937C23.3575 13.3185 23.123 12.9844 22.8512 12.6983L21.8363 13.6626C22.0098 13.8453 22.1738 14.0737 22.3244 14.3548L23.5584 13.6937ZM22.8506 12.6977C22.5733 12.4065 22.2675 12.1629 21.9323 11.9734L21.2435 13.1922C21.4473 13.3074 21.6455 13.4623 21.8369 13.6632L22.8506 12.6977ZM21.9519 11.9849C21.6427 11.7967 21.319 11.6415 20.9812 11.5199L20.507 12.8371C20.7552 12.9265 20.994 13.0408 21.2239 13.1807L21.9519 11.9849ZM20.9924 11.524C20.6763 11.4041 20.5189 11.3089 20.458 11.2574L19.5537 12.3262C19.7975 12.5325 20.1323 12.6951 20.4959 12.833L20.9924 11.524ZM20.458 11.2574C20.4372 11.2398 20.4438 11.2398 20.4555 11.2623C20.4614 11.2736 20.4673 11.2882 20.4715 11.3053C20.4757 11.3225 20.4773 11.3386 20.4773 11.3523H19.0773C19.0773 11.7666 19.2814 12.0958 19.5537 12.3262L20.458 11.2574ZM20.4773 11.3523C20.4773 11.3585 20.476 11.3596 20.4784 11.3528C20.4811 11.3449 20.4893 11.3252 20.5111 11.2938L19.36 10.4969C19.1913 10.7406 19.0773 11.0293 19.0773 11.3523H20.4773ZM20.5433 11.2426C20.5903 11.1604 20.6513 11.0899 20.7315 11.0283L19.8779 9.91859C19.6534 10.0913 19.4683 10.3021 19.3278 10.548L20.5433 11.2426ZM20.7568 11.0078C20.8623 10.9186 20.9619 10.8579 21.055 10.818L20.5036 9.5312C20.2686 9.63192 20.0518 9.77048 19.8525 9.93906L20.7568 11.0078ZM21.0923 10.8007C21.1424 10.7757 21.1783 10.7627 21.2009 10.7564C21.2235 10.7501 21.2283 10.7516 21.2188 10.7516V9.35156C20.9451 9.35156 20.6891 9.43707 20.4662 9.54851L21.0923 10.8007ZM21.2188 10.7516C21.278 10.7516 21.4001 10.7693 21.6024 10.8463L22.1008 9.53804C21.8108 9.4276 21.511 9.35156 21.2188 9.35156V10.7516ZM21.6024 10.8463C21.7978 10.9208 22.0075 11.0269 22.2316 11.1695L22.9832 9.98834C22.6917 9.8028 22.3975 9.65108 22.1008 9.53804L21.6024 10.8463ZM22.2513 11.1815C22.478 11.3155 22.7019 11.4714 22.9228 11.6503L23.8037 10.5622C23.5325 10.3426 23.2525 10.147 22.9635 9.97626L22.2513 11.1815ZM22.9099 11.6396C23.1174 11.8159 23.2935 11.9929 23.4408 12.1696L24.5163 11.2734C24.312 11.0282 24.0779 10.795 23.8166 10.5729L22.9099 11.6396ZM23.4352 12.1629C23.8443 12.6664 24.1982 13.2685 24.4922 13.9763L25.7851 13.4393C25.4463 12.6237 25.0268 11.9016 24.5218 11.2801L23.4352 12.1629ZM24.4887 13.9678C24.7588 14.6429 24.942 15.5107 25.0206 16.5888L26.4169 16.487C26.3314 15.3151 26.1279 14.2961 25.7886 13.4478L24.4887 13.9678ZM25.1893 16.9958C25.5065 17.3626 25.7723 17.8078 25.9811 18.3403L27.2845 17.8292C27.0246 17.1664 26.681 16.5803 26.2482 16.08L25.1893 16.9958ZM25.9874 18.3558C26.1921 18.8432 26.302 19.411 26.302 20.0711H27.702C27.702 19.2546 27.5657 18.4982 27.2782 17.8137L25.9874 18.3558ZM26.302 20.0711C26.302 20.3874 26.2624 20.7203 26.1799 21.0709L27.5427 21.3916C27.6477 20.9453 27.702 20.5047 27.702 20.0711H26.302ZM26.181 21.0663C26.096 21.4173 25.9845 21.7569 25.8467 22.0855L27.1377 22.627C27.3046 22.229 27.4392 21.8186 27.5416 21.3962L26.181 21.0663ZM25.8423 22.0963C25.714 22.4168 25.572 22.7052 25.4173 22.9629L26.6178 23.6832C26.8147 23.355 26.9891 22.9988 27.1421 22.6162L25.8423 22.0963ZM25.4173 22.9629C25.2609 23.2237 25.1187 23.4078 24.9953 23.5312L25.9852 24.5211C26.2133 24.293 26.4227 24.0084 26.6178 23.6832L25.4173 22.9629ZM24.9821 23.5447C24.6125 23.9348 24.2897 24.1357 24.0201 24.218L24.4292 25.5569C25.0033 25.3815 25.5242 25.0081 25.9984 24.5076L24.9821 23.5447ZM24.0251 24.2165C23.6698 24.3222 23.4037 24.3308 23.2063 24.2899L22.9226 25.6609C23.4049 25.7606 23.9122 25.7106 24.4241 25.5585L24.0251 24.2165ZM23.1834 24.2856C22.9436 24.2442 22.7971 24.1664 22.7033 24.0831L21.7732 25.1294C22.1014 25.4211 22.5056 25.5894 22.9455 25.6652L23.1834 24.2856ZM22.6892 24.0708C22.6222 24.0144 22.5991 23.9795 22.5944 23.9713C22.5926 23.9682 22.5955 23.9724 22.5986 23.9835C22.6019 23.995 22.6043 24.0098 22.6043 24.0262H21.2043C21.2043 24.5129 21.4816 24.8841 21.7874 25.1417L22.6892 24.0708ZM22.6043 24.0262C22.6043 24.0614 22.5983 24.0584 22.6161 23.9972C22.632 23.9425 22.6602 23.8636 22.7059 23.757L21.4191 23.2055C21.3122 23.455 21.2043 23.7528 21.2043 24.0262H22.6043ZM22.7204 23.7205C22.8025 23.4946 22.9195 23.227 23.0753 22.9154L21.8231 22.2893C21.6508 22.634 21.51 22.9523 21.4046 23.242L22.7204 23.7205ZM23.0841 22.8971C23.2374 22.567 23.4022 22.2079 23.5787 21.8197L22.3041 21.2404C22.129 21.6257 21.9657 21.9814 21.8143 22.3076L23.0841 22.8971ZM23.5787 21.8197C23.7569 21.4277 23.9292 21.0355 24.0956 20.6433L22.8068 20.0965C22.645 20.4777 22.4775 20.859 22.3041 21.2404L23.5787 21.8197ZM24.1025 20.6265C24.262 20.2216 24.3981 19.8261 24.5101 19.4401L23.1656 19.0498C23.0668 19.3903 22.9451 19.7448 22.7999 20.1133L24.1025 20.6265ZM24.517 19.4147C24.6211 18.9983 24.6785 18.6002 24.6785 18.2254H23.2785C23.2785 18.4599 23.2422 18.7416 23.1588 19.0751L24.517 19.4147ZM24.4319 17.692C24.1278 17.4336 23.7501 17.2184 23.3203 17.0361L22.7735 18.3249C23.1171 18.4706 23.3605 18.6188 23.5252 18.7587L24.4319 17.692ZM23.3203 17.0361C22.8397 16.8322 22.3239 16.7344 21.7813 16.7344V18.1344C22.1527 18.1344 22.4806 18.2006 22.7735 18.3249L23.3203 17.0361ZM21.7813 16.7344C21.1552 16.7344 20.5615 16.8192 20.0052 16.9956L20.4284 18.3301C20.833 18.2019 21.2823 18.1344 21.7813 18.1344V16.7344ZM20.0052 16.9956C19.4756 17.1636 18.9801 17.3847 18.5207 17.6603L19.241 18.8608C19.602 18.6442 19.9971 18.4669 20.4284 18.3301L20.0052 16.9956ZM18.5207 17.6603C18.0725 17.9292 17.6553 18.2372 17.27 18.584L18.2066 19.6246C18.5243 19.3386 18.8689 19.084 19.241 18.8608L18.5207 17.6603ZM17.2885 18.568C16.9104 18.885 16.5554 19.2093 16.2238 19.541L17.2137 20.5309C17.5149 20.2298 17.8396 19.933 18.1881 19.6406L17.2885 18.568ZM16.455 20.6843C17.164 20.9727 17.8683 21.2256 18.5679 21.4428L18.9829 20.1057C18.3231 19.9009 17.6563 19.6616 16.9825 19.3875L16.455 20.6843ZM18.5646 21.4417C19.243 21.656 20.0136 21.8811 20.8756 22.1173L21.2455 20.7671C20.3965 20.5345 19.6437 20.3143 18.9862 20.1067L18.5646 21.4417ZM8.50977 7.87047L9.14711 8.16017L9.15171 8.14957L8.50977 7.87047ZM8.03516 8.55602L8.51491 9.06576L8.52263 9.05849L8.53013 9.05099L8.03516 8.55602ZM7.34961 9.01305L7.62876 9.65508L7.63927 9.6503L7.34961 9.01305ZM4.4668 7.87047L5.11468 7.60542L5.11179 7.59836L5.10875 7.59136L4.4668 7.87047ZM4.4668 6.14781L5.10875 6.42692L5.11393 6.415L5.11867 6.40289L4.4668 6.14781ZM4.92383 5.46227L5.40358 5.97201L5.41903 5.95747L5.43357 5.94202L4.92383 5.46227ZM5.60938 5.00523L5.86445 5.6571L5.87656 5.65237L5.88848 5.64719L5.60938 5.00523ZM7.34961 5.00523L7.0705 5.64719L7.0775 5.65022L7.08457 5.65311L7.34961 5.00523ZM8.03516 5.46227L7.54018 5.95724L7.54768 5.96474L7.5554 5.97201L8.03516 5.46227ZM23.3809 6.18297L23.4245 6.88161L23.4274 6.88142L23.3809 6.18297ZM24.2422 4.33727L23.7363 4.82112L23.7417 4.82674L23.7472 4.83224L24.2422 4.33727ZM23.2754 3.65172L22.9548 4.274L22.9624 4.27789L22.97 4.28159L23.2754 3.65172ZM22.0273 3.15953L22.222 2.48712L22.2174 2.48582L22.0273 3.15953ZM20.7441 2.84312L20.8853 2.15746L20.8772 2.15588L20.7441 2.84312ZM19.9531 2.52672L19.4768 3.03967L19.487 3.04914L19.4976 3.0582L19.9531 2.52672ZM19.6895 2.05211L20.3877 2.00224L20.3861 1.98085L20.3833 1.95959L19.6895 2.05211ZM19.8125 1.54234L20.4013 1.92088L20.4072 1.91177L20.4127 1.90249L19.8125 1.54234ZM20.2344 1.08531L20.6483 1.6498L20.6698 1.63409L20.6899 1.61679L20.2344 1.08531ZM20.7969 0.786484L20.9842 1.46095L21.0014 1.45618L21.0182 1.45056L20.7969 0.786484ZM21.3945 0.751328L21.5798 0.0763016L21.5721 0.074173L21.5643 0.0722275L21.3945 0.751328ZM23.2754 1.40172L23.0094 2.04931L23.0194 2.05325L23.2754 1.40172ZM26.7207 7.18492L26.0946 6.87187L26.0906 6.8798L26.0869 6.88782L26.7207 7.18492ZM24.9277 8.7318L25.1376 9.39959L25.1462 9.39689L25.1548 9.39396L24.9277 8.7318ZM13.2734 9.01305L13.4793 9.68209L13.5023 9.67502L13.5247 9.66639L13.2734 9.01305ZM12.4297 8.80211L13.0398 8.45892L13.0319 8.44482L13.0233 8.43111L12.4297 8.80211ZM12.7285 6.72789L13.2408 7.20488L13.2493 7.19576L13.2575 7.18634L12.7285 6.72789ZM7.98555 7.02672C7.98555 7.22334 7.94684 7.40961 7.86782 7.59136L9.15171 8.14957C9.30707 7.79227 9.38555 7.41604 9.38555 7.02672H7.98555ZM7.87251 7.5808C7.78987 7.76261 7.67973 7.92149 7.54018 8.06104L8.53013 9.05099C8.78902 8.79211 8.99529 8.49395 9.14702 8.16013L7.87251 7.5808ZM7.5554 8.04627C7.41408 8.17928 7.25032 8.28926 7.05995 8.37579L7.63927 9.6503C7.96453 9.50246 8.2578 9.30775 8.51491 9.06576L7.5554 8.04627ZM7.0705 8.37109C6.89229 8.44859 6.70054 8.48883 6.48828 8.48883V9.88882C6.8854 9.88882 7.26787 9.81188 7.62872 9.655L7.0705 8.37109ZM6.48828 8.48883C6.26046 8.48883 6.06336 8.44714 5.88848 8.37109L5.33027 9.655C5.69445 9.81333 6.08329 9.88882 6.48828 9.88882V8.48883ZM5.88848 8.37109C5.69077 8.28513 5.53782 8.18005 5.4188 8.06104L4.42885 9.05099C4.68484 9.30698 4.98892 9.50658 5.33027 9.655L5.88848 8.37109ZM5.4188 8.06104C5.28454 7.92678 5.18454 7.7762 5.11468 7.60542L3.81891 8.13551C3.95999 8.48036 4.16468 8.78681 4.42885 9.05099L5.4188 8.06104ZM5.10875 7.59136C5.02972 7.40961 4.99102 7.22334 4.99102 7.02672H3.59102C3.59102 7.41604 3.6695 7.79227 3.82485 8.14957L5.10875 7.59136ZM4.99102 7.02672C4.99102 6.7989 5.03271 6.6018 5.10875 6.42692L3.82485 5.86871C3.66651 6.23289 3.59102 6.62173 3.59102 7.02672H4.99102ZM5.11867 6.40289C5.18858 6.22423 5.28425 6.08432 5.40358 5.97201L4.44407 4.95252C4.16497 5.21521 3.95595 5.53233 3.81493 5.89273L5.11867 6.40289ZM5.43357 5.94202C5.54588 5.82269 5.68579 5.72702 5.86445 5.6571L5.3543 4.35336C4.9939 4.49438 4.67677 4.70341 4.41409 4.98251L5.43357 5.94202ZM5.88848 5.64719C6.06336 5.57114 6.26046 5.52945 6.48828 5.52945L6.48828 4.12946C6.08329 4.12946 5.69445 4.20495 5.33027 4.36328L5.88848 5.64719ZM6.48828 5.52945C6.70054 5.52945 6.89229 5.56969 7.0705 5.64719L7.62872 4.36328C7.26787 4.2064 6.8854 4.12946 6.48828 4.12946L6.48828 5.52945ZM7.08457 5.65311C7.25534 5.72298 7.40592 5.82298 7.54018 5.95724L8.53013 4.96729C8.26595 4.70311 7.95951 4.49843 7.61465 4.35735L7.08457 5.65311ZM7.5554 5.97201C7.68045 6.0897 7.78564 6.23792 7.86782 6.42692L9.15171 5.86871C8.99951 5.51864 8.7883 5.20983 8.51491 4.95252L7.5554 5.97201ZM7.86782 6.42692C7.94385 6.6018 7.98555 6.7989 7.98555 7.02672H9.38555C9.38555 6.62173 9.31005 6.23289 9.15171 5.86871L7.86782 6.42692ZM22.9766 6.90054C23.0823 6.90054 23.2361 6.89338 23.4245 6.88161L23.3372 5.48433C23.1506 5.49599 23.0348 5.50055 22.9766 5.50055V6.90054ZM23.4274 6.88142C23.6642 6.86563 23.9003 6.81883 24.1346 6.74564L23.717 5.40936C23.5762 5.45335 23.4491 5.47687 23.3343 5.48452L23.4274 6.88142ZM24.1346 6.74564C24.4172 6.6573 24.6722 6.51276 24.891 6.31226L23.945 5.28024C23.8825 5.33755 23.8093 5.38051 23.717 5.40936L24.1346 6.74564ZM24.891 6.31226C25.2084 6.0213 25.3289 5.6336 25.3289 5.25133H23.9289C23.9289 5.29921 23.9217 5.31497 23.9234 5.31065C23.9242 5.3084 23.9266 5.30309 23.9312 5.29636C23.9358 5.28959 23.9408 5.28407 23.945 5.28024L24.891 6.31226ZM25.3289 5.25133C25.3289 4.70657 25.1208 4.22594 24.7372 3.84229L23.7472 4.83224C23.8792 4.96421 23.9289 5.09296 23.9289 5.25133H25.3289ZM24.748 3.85341C24.4246 3.51524 24.0312 3.24025 23.5808 3.02185L22.97 4.28159C23.293 4.43819 23.5442 4.62022 23.7363 4.82112L24.748 3.85341ZM23.596 3.02943C23.1664 2.80817 22.708 2.62782 22.222 2.48714L21.8327 3.83192C22.2373 3.94906 22.6109 4.09682 22.9548 4.274L23.596 3.02943ZM22.2174 2.48582C21.7468 2.35309 21.3026 2.24342 20.8853 2.1575L20.603 3.52875C20.9826 3.60689 21.3938 3.70816 21.8373 3.83324L22.2174 2.48582ZM20.8772 2.15588C20.5587 2.09425 20.4364 2.01899 20.4087 1.99524L19.4976 3.0582C19.798 3.3157 20.203 3.45138 20.6111 3.53037L20.8772 2.15588ZM20.4294 2.01376C20.3892 1.97635 20.3769 1.95533 20.3761 1.95386C20.3759 1.95358 20.3785 1.95814 20.3813 1.96735C20.3842 1.97675 20.3867 1.98868 20.3877 2.00224L18.9912 2.10198C19.0196 2.49858 19.2304 2.81089 19.4768 3.03967L20.4294 2.01376ZM20.3833 1.95959C20.383 1.95704 20.3831 1.95634 20.3831 1.95692C20.383 1.95753 20.3829 1.95776 20.3831 1.95708C20.3833 1.95643 20.386 1.94466 20.4013 1.92088L19.2237 1.16381C19.0381 1.45253 18.948 1.78754 18.9956 2.14462L20.3833 1.95959ZM20.4127 1.90249C20.4673 1.8115 20.5428 1.72719 20.6483 1.6498L19.8204 0.520828C19.5744 0.701248 19.3686 0.921623 19.2123 1.1822L20.4127 1.90249ZM20.6899 1.61679C20.7751 1.54379 20.8707 1.49247 20.9842 1.46095L20.6095 0.112022C20.3011 0.197685 20.0218 0.345581 19.7788 0.553833L20.6899 1.61679ZM21.0182 1.45056C21.1223 1.41587 21.1849 1.42048 21.2248 1.43043L21.5643 0.0722275C21.2291 -0.0115738 20.8933 0.0164719 20.5755 0.122406L21.0182 1.45056ZM21.2092 1.42635C21.7759 1.58191 22.3758 1.78899 23.0094 2.04923L23.5413 0.754204C22.8625 0.47538 22.2085 0.248871 21.5798 0.0763016L21.2092 1.42635ZM23.0194 2.05325C23.6194 2.28896 24.1682 2.59302 24.6679 2.9651L25.504 1.84224C24.9021 1.39401 24.2438 1.0301 23.5313 0.750191L23.0194 2.05325ZM24.6679 2.9651C25.1506 3.32458 25.5486 3.75355 25.8655 4.25449L27.0486 3.50598C26.6389 2.85848 26.1229 2.30308 25.504 1.84224L24.6679 2.9651ZM25.8655 4.25449C26.1485 4.70184 26.302 5.24199 26.302 5.90172H27.702C27.702 5.01457 27.4921 4.20706 27.0486 3.50598L25.8655 4.25449ZM26.302 5.90172C26.302 6.28944 26.2269 6.60738 26.0946 6.87187L27.3468 7.49797C27.5896 7.01247 27.702 6.47494 27.702 5.90172H26.302ZM26.0869 6.88782C25.9522 7.1751 25.7727 7.40952 25.5478 7.59977L26.4522 8.66851C26.8367 8.34314 27.1376 7.94474 27.3545 7.48203L26.0869 6.88782ZM25.5478 7.59977C25.3151 7.79668 25.0357 7.95479 24.7007 8.06963L25.1548 9.39396C25.6401 9.22755 26.0755 8.98723 26.4522 8.66851L25.5478 7.59977ZM24.7179 8.064C24.3798 8.17026 24.0173 8.22516 23.627 8.22516V9.62515C24.1507 9.62515 24.6554 9.55115 25.1376 9.39959L24.7179 8.064ZM23.627 8.22516H14.0117V9.62515H23.627V8.22516ZM14.0117 8.22516C13.6585 8.22516 13.3022 8.25199 13.0222 8.3597L13.5247 9.66639C13.5232 9.66696 13.5324 9.66338 13.5561 9.65816C13.5792 9.65305 13.6117 9.64738 13.655 9.64222C13.7427 9.63179 13.8601 9.62515 14.0117 9.62515V8.22516ZM13.0676 8.344C12.9668 8.375 12.8965 8.38336 12.8516 8.38336V9.78336C13.0645 9.78336 13.2754 9.74484 13.4793 9.68209L13.0676 8.344ZM12.8516 8.38336C12.8706 8.38336 12.8961 8.386 12.9252 8.39462C12.9545 8.40331 12.9808 8.41611 13.0025 8.43061C13.0456 8.4593 13.0528 8.48206 13.0398 8.45892L11.8196 9.14529C12.0163 9.49504 12.3625 9.78336 12.8516 9.78336V8.38336ZM13.0233 8.43111C12.9865 8.37226 12.9539 8.28291 12.9539 8.13414H11.5539C11.5539 8.50099 11.6385 8.85696 11.8361 9.17311L13.0233 8.43111ZM12.9539 8.13414C12.9539 7.6609 13.0767 7.38123 13.2408 7.20488L12.2162 6.2509C11.7476 6.75423 11.5539 7.41206 11.5539 8.13414H12.9539ZM13.2575 7.18634C13.4402 6.97552 13.6215 6.90054 13.8359 6.90054V5.50055C13.1831 5.50055 12.6262 5.77714 12.1995 6.26944L13.2575 7.18634ZM13.8359 6.90054H22.9766V5.50055H13.8359V6.90054Z" fill="#8D3333"/>
</svg>
