<svg width="303" height="92" viewBox="0 0 303 92" fill="none" xmlns="http://www.w3.org/2000/svg">
<path d="M156.249 0.47233C153.903 -1.333 151.243 2.61764 151.243 2.61764C151.243 2.61764 148.583 -1.333 146.236 0.47233C144.825 1.55766 145.219 4.49099 151.243 9.73633C157.267 4.49099 157.659 1.55766 156.249 0.47233Z" fill="white"/>
<path d="M167.485 4.86833C167.485 6.34833 166.285 7.54834 164.805 7.54834C163.325 7.54834 162.125 6.34833 162.125 4.86833C162.125 3.38833 163.325 2.18831 164.805 2.18831C166.285 2.18831 167.485 3.38833 167.485 4.86833Z" fill="white"/>
<path d="M140.36 4.86833C140.36 6.34833 139.16 7.54834 137.681 7.54834C136.2 7.54834 135 6.34833 135 4.86833C135 3.38833 136.2 2.18831 137.681 2.18831C139.16 2.18831 140.36 3.38833 140.36 4.86833Z" fill="white"/>
<path d="M150.351 75.2722C149.679 75.2722 149.343 74.8429 149.343 73.9842C149.343 73.1629 149.679 72.1176 150.351 70.8482L161.159 55.2802C164.482 50.5016 166.946 46.5816 168.551 43.5202C170.157 40.4589 170.959 38.2936 170.959 37.0242C170.959 36.4269 170.735 35.9789 170.287 35.6802C169.839 35.3816 169.317 35.1762 168.719 35.0642C168.122 34.9522 167.562 34.8962 167.039 34.8962C163.866 34.8962 159.442 36.8376 153.767 40.7202C152.162 41.8029 150.687 43.0162 149.343 44.3602C147.999 45.7042 146.749 47.1416 145.591 48.6722C143.351 51.7336 142.231 54.3096 142.231 56.4002C142.231 58.0056 142.978 58.9762 144.471 59.3122C145.031 59.4616 145.666 59.5362 146.375 59.5362C147.719 59.5362 149.063 59.2002 150.407 58.5282C151.751 57.8562 153.058 56.9976 154.327 55.9522C155.298 55.1309 155.858 54.7202 156.007 54.7202C156.157 54.7202 156.213 54.8509 156.175 55.1122C155.951 55.8962 155.41 56.6429 154.551 57.3522C153.693 58.0616 152.666 58.7149 151.471 59.3122C150.277 59.8722 149.063 60.3202 147.831 60.6562C146.637 60.9549 145.573 61.1042 144.639 61.1042C143.146 61.1042 141.839 60.7309 140.719 59.9842C139.599 59.2002 139.039 58.0616 139.039 56.5682C139.039 54.2909 140.365 51.4909 143.015 48.1682C145.554 44.9576 148.69 42.1016 152.423 39.6002C153.954 38.5549 155.746 37.5656 157.799 36.6322C159.853 35.6616 161.925 34.8776 164.015 34.2802C166.106 33.6456 167.973 33.3282 169.615 33.3282C172.565 33.3282 174.039 34.2989 174.039 36.2402C174.039 38.5922 172.266 42.6429 168.719 48.3922C166.218 52.3496 162.914 57.0536 158.807 62.5042C155.41 67.0216 153.693 69.2802 153.655 69.2802C153.767 69.2802 155.559 67.3576 159.031 63.5122C161.159 61.1229 163.157 58.9949 165.023 57.1282C166.927 55.2242 168.682 53.5629 170.287 52.1442C171.071 51.4349 172.023 50.5576 173.143 49.5122C174.263 48.4296 175.57 47.1789 177.063 45.7602C178.37 44.5656 179.639 43.4829 180.871 42.5122C182.141 41.5416 183.298 41.0562 184.343 41.0562C185.426 41.0562 186.135 41.3176 186.471 41.8402C183.037 46.0962 179.826 51.3042 176.839 57.4642C174.711 61.8696 173.647 65.2109 173.647 67.4882C173.647 68.8322 174.002 69.8029 174.711 70.4002C175.421 70.9976 176.354 71.2962 177.511 71.2962C178.781 71.2962 180.106 70.9416 181.487 70.2322C182.906 69.5229 184.306 68.6082 185.687 67.4882C187.069 66.3682 188.357 65.1922 189.551 63.9602C193.845 59.6296 197.261 54.9442 199.799 49.9042C201.778 45.9469 202.767 42.7922 202.767 40.4402C202.767 40.2162 202.749 40.0109 202.711 39.8242C202.711 39.6376 202.693 39.4696 202.655 39.3202C201.871 39.3202 201.031 38.9096 200.135 38.0882C199.575 37.6402 199.295 37.1736 199.295 36.6882C199.295 36.2402 199.482 35.8669 199.855 35.5682C200.229 35.2696 200.658 35.1202 201.143 35.1202C201.853 35.1202 202.375 35.4376 202.711 36.0722C202.861 36.3709 203.159 36.7442 203.607 37.1922C203.906 37.4909 204.037 37.7149 203.999 37.8642C204.223 38.2002 204.597 38.3682 205.119 38.3682C205.642 38.3682 206.127 38.1442 206.575 37.6962C207.061 37.2482 207.583 37.0242 208.143 37.0242C208.442 37.0242 208.591 37.1362 208.591 37.3602C208.591 37.7709 208.237 38.1629 207.527 38.5362C207.154 38.7976 206.706 38.9656 206.183 39.0402C205.885 39.0776 205.586 39.1149 205.287 39.1522C204.989 39.1522 204.69 39.1149 204.391 39.0402C204.839 40.5336 205.063 41.6349 205.063 42.3442C205.063 45.3309 203.645 49.1949 200.807 53.9362C199.389 56.3256 197.765 58.5842 195.935 60.7122C194.106 62.8402 192.053 64.8376 189.775 66.7042C185.258 70.5122 181.245 72.4162 177.735 72.4162C173.89 72.4162 171.967 70.6242 171.967 67.0402C171.967 65.3602 172.322 63.4562 173.031 61.3282C173.741 59.1629 174.581 57.0162 175.551 54.8882L179.583 46.0962C177.941 47.3656 176.597 48.4109 175.551 49.2322C174.543 50.0162 173.685 50.6882 172.975 51.2482C172.303 51.8082 171.65 52.3869 171.015 52.9842C170.418 53.5442 169.69 54.2349 168.831 55.0562C167.898 55.9896 166.647 57.3336 165.079 59.0882C163.511 60.8056 161.682 62.9522 159.591 65.5282L153.095 73.4802C152.722 73.9282 152.293 74.3389 151.807 74.7122C151.322 75.0856 150.837 75.2722 150.351 75.2722ZM214.122 49.7362C213.487 49.7362 212.927 49.5309 212.442 49.1202C211.994 48.7096 211.77 48.2429 211.77 47.7202C211.77 46.6749 212.479 46.1522 213.898 46.1522C214.421 46.1522 214.943 46.3389 215.466 46.7122C215.989 47.0482 216.25 47.4776 216.25 48.0002C216.25 48.4482 216.007 48.8589 215.522 49.2322C215.037 49.5682 214.57 49.7362 214.122 49.7362ZM203.762 69.6162C202.941 69.6162 202.269 69.3549 201.746 68.8322C201.186 68.2722 200.906 67.3016 200.906 65.9202C200.906 65.1362 201.093 64.2402 201.466 63.2322C201.802 62.1869 202.231 61.1416 202.754 60.0962C203.314 59.0509 203.855 58.1176 204.378 57.2962C206.469 53.8989 208.186 52.1816 209.53 52.1442C209.866 52.1442 210.277 52.2936 210.762 52.5922C211.247 52.8536 211.49 53.1522 211.49 53.4882C211.49 53.4882 210.071 55.3176 207.234 58.9762C204.434 62.5976 203.034 65.1736 203.034 66.7042C203.034 67.8989 203.501 68.4962 204.434 68.4962C205.031 68.4962 205.797 68.2536 206.73 67.7682C207.701 67.2456 208.709 66.5922 209.754 65.8082C210.799 65.0242 211.789 64.1842 212.722 63.2882C213.693 62.3922 214.477 61.5709 215.074 60.8242C215.447 60.3389 215.765 60.0029 216.026 59.8162C216.325 59.6296 216.511 59.5362 216.586 59.5362C216.735 59.5362 216.81 59.6482 216.81 59.8722C216.81 60.0589 216.586 60.4322 216.138 60.9922C215.727 61.5522 215.149 62.2056 214.402 62.9522C213.506 63.8482 212.517 64.8189 211.434 65.8642C210.351 66.9096 209.175 67.8056 207.906 68.5522C206.637 69.2616 205.255 69.6162 203.762 69.6162ZM218.635 69.1122C217.552 69.1122 216.544 68.8509 215.611 68.3282C214.678 67.7682 214.211 66.8536 214.211 65.5842C214.211 63.8296 214.827 61.7389 216.059 59.3122C217.328 56.8856 218.766 54.3656 220.371 51.7522C224.739 44.6589 227.838 41.1122 229.667 41.1122C230.04 41.1122 230.414 41.2616 230.787 41.5602C231.198 41.8216 231.422 42.1202 231.459 42.4562L227.539 47.7202C226.008 49.7736 224.627 51.6776 223.395 53.4322C222.163 55.1496 221.099 56.6989 220.203 58.0802C219.755 58.7896 219.251 59.5922 218.691 60.4882C218.131 61.3842 217.627 62.3176 217.179 63.2882C216.768 64.2216 216.563 65.1736 216.563 66.1442C216.563 66.5922 216.694 67.0029 216.955 67.3762C217.216 67.7122 217.683 67.8802 218.355 67.8802C219.55 67.8802 221.118 67.2456 223.059 65.9762C225 64.6696 226.923 62.8776 228.827 60.6002C229.014 60.3762 229.219 60.1709 229.443 59.9842C229.667 59.7976 229.854 59.7042 230.003 59.7042C230.19 59.7042 230.283 59.8162 230.283 60.0402C230.283 60.1522 230.152 60.3762 229.891 60.7122C229.667 61.0109 229.48 61.2536 229.331 61.4402L227.987 62.9522C227.24 63.7736 226.344 64.6696 225.299 65.6402C224.291 66.6109 223.208 67.4322 222.051 68.1042C220.931 68.7762 219.792 69.1122 218.635 69.1122ZM231.748 69.2802C230.628 69.2802 229.676 68.9816 228.892 68.3842C228.108 67.7496 227.66 66.9842 227.548 66.0882C227.399 64.8936 227.567 63.6989 228.052 62.5042C228.575 61.2722 229.265 60.0962 230.124 58.9762C231.02 57.8562 231.972 56.8109 232.98 55.8402C236.937 51.8829 240.503 49.9042 243.676 49.9042C244.759 49.9042 245.487 50.1842 245.86 50.7442C246.009 50.9309 246.177 51.3602 246.364 52.0322C250.545 45.2376 253.457 41.8402 255.1 41.8402C255.473 41.8402 255.865 41.9336 256.276 42.1202C256.687 42.3069 256.892 42.5496 256.892 42.8482C256.892 43.0349 256.799 43.2776 256.612 43.5762C255.492 44.9576 254.372 46.3389 253.252 47.7202C252.132 49.0642 251.031 50.4269 249.948 51.8082C248.119 54.1229 246.644 56.1389 245.524 57.8562C244.404 59.5736 243.601 61.0296 243.116 62.2242C242.967 62.5976 242.817 63.0642 242.668 63.6242C242.556 64.1469 242.5 64.6882 242.5 65.2482C242.5 65.9576 242.649 66.5736 242.948 67.0962C243.247 67.6189 243.788 67.8802 244.572 67.8802C245.804 67.8802 247.316 67.2829 249.108 66.0882C250.9 64.8936 252.991 62.9336 255.38 60.2082C255.529 60.0589 255.66 59.9282 255.772 59.8162C255.921 59.7042 256.071 59.6296 256.22 59.5922C256.556 59.5176 256.724 59.5922 256.724 59.8162C256.724 59.9282 256.612 60.1336 256.388 60.4322C255.231 61.8136 253.943 63.1762 252.524 64.5202C251.105 65.8642 249.649 66.9842 248.156 67.8802C246.7 68.7389 245.337 69.1682 244.068 69.1682C242.799 69.1682 241.903 68.7389 241.38 67.8802C240.857 67.0216 240.596 66.0509 240.596 64.9682C240.596 63.8482 240.801 62.8216 241.212 61.8882L236.676 66.4242C235.668 67.4322 234.735 68.1602 233.876 68.6082C233.055 69.0562 232.345 69.2802 231.748 69.2802ZM231.244 68.0482C232.849 68.0482 235.519 65.8456 239.252 61.4402C239.439 61.2162 240.092 60.3949 241.212 58.9762C242.332 57.5202 243.919 55.4109 245.972 52.6482C245.711 52.2002 245.263 51.9762 244.628 51.9762C242.313 51.9762 239.215 53.8056 235.332 57.4642C231.673 60.8616 229.844 63.7176 229.844 66.0322C229.844 67.3762 230.311 68.0482 231.244 68.0482ZM257.889 69.2802C256.993 69.2802 256.097 68.9629 255.201 68.3282C254.305 67.6936 253.801 66.9469 253.689 66.0882C253.315 63.2136 255.126 59.7976 259.121 55.8402C263.078 51.8829 266.643 49.9042 269.817 49.9042C270.675 49.9042 271.347 50.1096 271.833 50.5202C272.094 50.7816 272.281 51.1362 272.393 51.5842C272.542 52.0322 272.654 52.2562 272.729 52.2562C272.878 52.2562 273.009 52.2376 273.121 52.2002C273.233 52.1256 273.363 52.0882 273.513 52.0882C273.961 52.0882 274.353 52.2562 274.689 52.5922C275.025 52.9282 275.211 53.2269 275.249 53.4882C275.286 53.5629 274.091 55.4109 271.665 59.0322C269.238 62.5789 268.137 64.9869 268.361 66.2562C268.547 67.1149 268.958 67.5442 269.593 67.5442C271.534 67.5442 275.081 64.3336 280.233 57.9122C280.345 57.7629 280.457 57.6882 280.569 57.6882C280.755 57.6882 280.849 57.8189 280.849 58.0802C280.849 58.3789 280.681 58.7522 280.345 59.2002C275.603 65.5842 271.963 68.7762 269.425 68.7762C269.089 68.7762 268.771 68.7202 268.473 68.6082C266.83 67.9736 266.009 66.7416 266.009 64.9122C266.009 64.2776 266.083 63.6429 266.233 63.0082L262.761 66.3682C261.715 67.4136 260.763 68.1602 259.905 68.6082C259.083 69.0562 258.411 69.2802 257.889 69.2802ZM257.385 68.0482C259.55 68.0482 262.499 65.6776 266.233 60.9362L272.169 52.7602C271.87 52.2376 271.385 51.9762 270.713 51.9762C268.435 51.9762 265.355 53.8056 261.473 57.4642C257.441 61.1976 255.63 64.2776 256.041 66.7042C256.227 67.6002 256.675 68.0482 257.385 68.0482ZM291.495 69.1122C290.487 69.1122 289.778 68.8322 289.367 68.2722C288.956 67.6749 288.751 66.9469 288.751 66.0882C288.751 63.9229 289.498 61.6082 290.991 59.1442L294.575 53.3202C292.036 55.1869 289.516 57.5202 287.015 60.3202C286.343 61.0669 285.578 61.9442 284.719 62.9522C283.898 63.9602 282.983 65.1176 281.975 66.4242C280.631 68.1789 279.828 69.0562 279.567 69.0562C279.044 69.0562 278.615 68.8322 278.279 68.3842C277.943 67.8989 277.775 67.4696 277.775 67.0962C277.775 66.7976 277.868 66.2562 278.055 65.4722C278.242 64.6509 278.466 63.9416 278.727 63.3442C278.988 62.7096 279.25 62.0936 279.511 61.4962C279.81 60.8616 280.09 60.2456 280.351 59.6482L276.991 63.1762C276.916 63.2509 276.692 63.4749 276.319 63.8482C275.946 64.2216 275.647 64.4082 275.423 64.4082C275.236 64.4082 275.143 64.2776 275.143 64.0162C275.143 63.9416 275.18 63.8482 275.255 63.7362C275.292 63.5869 275.404 63.4189 275.591 63.2322C276.151 62.6722 276.73 62.0749 277.327 61.4402C277.924 60.8056 278.54 60.0776 279.175 59.2562C279.511 58.8456 280.015 58.2296 280.687 57.4082C281.359 56.5496 282.087 55.6349 282.871 54.6642C283.692 53.6936 284.458 52.7976 285.167 51.9762C285.354 51.7149 285.559 51.5469 285.783 51.4722C286.007 51.3602 286.156 51.3042 286.231 51.3042C287.239 51.3042 287.743 51.6962 287.743 52.4802C287.743 52.7042 287.687 52.9282 287.575 53.1522C284.215 57.7816 282.199 61.3096 281.527 63.7362C285.858 59.4056 289.33 56.1576 291.943 53.9922C294.594 51.7896 296.479 50.6882 297.599 50.6882C298.196 50.6882 298.644 50.7816 298.943 50.9682C299.279 51.1549 299.447 51.5096 299.447 52.0322C299.447 52.2189 299.428 52.3682 299.391 52.4802C299.279 52.7416 298.514 53.7869 297.095 55.6162C296.236 56.6616 295.471 57.6136 294.799 58.4722C294.164 59.3309 293.642 60.0776 293.231 60.7122C292.559 61.7576 292.055 62.7469 291.719 63.6802C291.383 64.5762 291.215 65.3416 291.215 65.9762C291.215 66.2376 291.252 66.5549 291.327 66.9282C291.402 67.3016 291.626 67.4882 291.999 67.4882C292.858 67.4882 294.202 66.7416 296.031 65.2482C296.89 64.5016 297.692 63.7549 298.439 63.0082C299.186 62.2242 299.895 61.4589 300.567 60.7122C300.716 60.5629 300.959 60.2829 301.295 59.8722C301.631 59.4242 301.836 59.2002 301.911 59.2002C302.06 59.2002 302.135 59.3496 302.135 59.6482C302.135 59.7976 302.042 60.0589 301.855 60.4322C301.706 60.7682 301.538 61.0296 301.351 61.2162C300.94 61.7016 300.324 62.3736 299.503 63.2322C298.719 64.0909 297.823 64.9682 296.815 65.8642C295.844 66.7602 294.892 67.5256 293.959 68.1602C293.026 68.7949 292.204 69.1122 291.495 69.1122Z" fill="white"/>
<path d="M104.362 75.504C102.346 75.504 100.535 75.112 98.93 74.328C97.362 73.544 96.1113 72.4427 95.178 71.024C94.2446 69.6053 93.778 67.944 93.778 66.04C93.778 65.816 93.778 65.6107 93.778 65.424C93.778 65.2 93.7966 64.976 93.834 64.752C92.042 64.5653 90.3993 64.192 88.906 63.632C87.45 63.072 86.2926 62.3067 85.434 61.336C84.5753 60.328 84.146 59.096 84.146 57.64C84.146 56.296 84.5566 55.0267 85.378 53.832C86.1993 52.6 87.226 51.4613 88.458 50.416C89.7273 49.3333 91.0526 48.4 92.434 47.616C95.01 46.048 97.53 44.872 99.994 44.088C99.5086 43.4907 99.1166 42.8 98.818 42.016C98.5566 41.1947 98.426 40.4107 98.426 39.664C98.426 38.32 98.9113 37.1253 99.882 36.08C100.89 34.9973 102.178 34.0827 103.746 33.336C105.314 32.5893 106.975 32.0107 108.73 31.6C110.485 31.1893 112.109 30.984 113.602 30.984C117.559 30.984 119.538 32.1973 119.538 34.624C119.538 35.744 119.109 36.7147 118.25 37.536C117.391 38.3573 116.439 38.768 115.394 38.768C114.386 38.768 113.882 38.5067 113.882 37.984C113.882 37.6107 114.125 37.424 114.61 37.424C114.759 37.424 114.946 37.4613 115.17 37.536C115.245 37.5733 115.375 37.592 115.562 37.592C116.047 37.592 116.514 37.312 116.962 36.752C117.559 36.0427 117.858 35.3707 117.858 34.736C117.858 33.728 117.279 33 116.122 32.552C115.375 32.2907 114.423 32.16 113.266 32.16C111.773 32.16 110.279 32.4213 108.786 32.944C107.33 33.4293 105.986 34.12 104.754 35.016C103.559 35.8747 102.589 36.864 101.842 37.984C101.095 39.104 100.722 40.2987 100.722 41.568C100.722 42.464 100.946 43.1733 101.394 43.696C102.813 43.2853 104.063 43.08 105.146 43.08C107.311 43.08 108.394 43.5093 108.394 44.368C108.394 44.8533 108.077 45.2827 107.442 45.656C106.807 45.992 106.117 46.16 105.37 46.16C103.503 46.16 101.917 45.6747 100.61 44.704C99.5646 45.0027 98.4633 45.4693 97.306 46.104C96.1486 46.7387 94.9353 47.5227 93.666 48.456C91.9486 49.7253 90.4553 51.144 89.186 52.712C87.9166 54.2427 87.282 55.8853 87.282 57.64C87.282 60.9627 89.5406 62.8107 94.058 63.184C94.4686 60.5333 95.346 58.144 96.69 56.016C98.0713 53.888 99.882 52.1333 102.122 50.752C103.391 49.968 104.829 49.352 106.434 48.904C108.077 48.4187 109.719 48.0453 111.362 47.784C113.042 47.4853 114.573 47.224 115.954 47C117.783 46.7013 119.258 46.3653 120.378 45.992C121.498 45.6187 122.338 45.2267 122.898 44.816C123.309 44.5173 123.607 44.1813 123.794 43.808C124.018 43.4347 124.13 43.0987 124.13 42.8C124.13 42.576 124.093 42.3707 124.018 42.184C123.943 41.96 124.037 41.848 124.298 41.848C124.559 41.848 124.765 42.016 124.914 42.352C125.063 42.688 125.138 43.0053 125.138 43.304C125.138 44.0507 124.765 44.8533 124.018 45.712C123.197 46.5333 122.207 47.1493 121.05 47.56C119.893 47.9707 118.679 48.288 117.41 48.512C116.141 48.736 114.89 48.9973 113.658 49.296C114.367 49.968 114.722 50.976 114.722 52.32C114.722 55.0827 113.154 57.7333 110.018 60.272C107.853 61.9893 105.538 63.184 103.074 63.856C100.647 64.4907 98.034 64.808 95.234 64.808C95.1966 65.032 95.1593 65.2747 95.122 65.536C95.122 65.76 95.122 65.984 95.122 66.208C95.122 68.7093 95.962 70.744 97.642 72.312C99.3593 73.88 101.599 74.664 104.362 74.664C105.295 74.664 106.098 74.3467 106.77 73.712C107.442 73.1147 107.778 72.424 107.778 71.64C107.778 71.3787 107.722 71.1173 107.61 70.856C107.573 70.7813 107.554 70.688 107.554 70.576C107.554 70.352 107.703 70.24 108.002 70.24C108.413 70.24 108.618 70.7253 108.618 71.696C108.618 72.704 108.189 73.5813 107.33 74.328C106.471 75.112 105.482 75.504 104.362 75.504ZM105.09 45.264C106.023 45.264 106.565 45.04 106.714 44.592C106.751 44.2187 106.21 44.032 105.09 44.032C104.194 44.032 103.186 44.144 102.066 44.368C102.999 44.9653 104.007 45.264 105.09 45.264ZM95.402 63.24C97.8286 63.24 100.311 62.848 102.85 62.064C105.426 61.28 107.591 60.0853 109.346 58.48C111.698 56.352 112.874 54.168 112.874 51.928C112.874 50.2853 112.165 49.464 110.746 49.464C110.335 49.464 109.421 49.632 108.002 49.968C100.797 52.656 96.5966 57.08 95.402 63.24Z" fill="white"/>
<path d="M14.1653 71.304C13.7546 71.304 13.344 71.304 12.9333 71.304C12.5226 71.304 12.112 71.2853 11.7013 71.248C8.75198 71.0987 6.36265 70.128 4.53331 68.336C2.70398 66.544 1.78931 64.0987 1.78931 61C1.78931 58.312 2.55465 55.2693 4.08531 51.872C6.02665 47.5787 9.68531 43.5093 15.0613 39.664C18.16 37.4613 21.464 35.7067 24.9733 34.4C28.4826 33.056 32.0293 32.384 35.6133 32.384C37.704 32.384 39.608 32.664 41.3253 33.224C43.08 33.784 44.4613 34.624 45.4693 35.744C46.5146 36.864 47.0373 38.2827 47.0373 40C47.0373 40.5973 46.9626 41.232 46.8133 41.904C46.664 42.5387 46.4213 43.1733 46.0853 43.808L45.4693 44.984C45.768 45.992 45.9173 47.0187 45.9173 48.064C45.9173 52.7307 43.528 57.192 38.7493 61.448C31.432 68.0187 23.2373 71.304 14.1653 71.304ZM13.8293 70.184C21.184 70.184 28.184 67.216 34.8293 61.28C39.608 57.024 42.184 52.9733 42.5573 49.128C40.616 51.256 37.256 53.7947 32.4773 56.744L32.0293 56.856C31.7306 56.856 32.216 56.3333 33.4853 55.288L36.6213 52.712C37.9653 51.592 39.1226 50.5467 40.0933 49.576C41.064 48.6053 41.8666 47.728 42.5013 46.944C42.24 44.8533 41.232 43.0613 39.4773 41.568C37.984 40.2613 36.192 39.2907 34.1013 38.656C33.056 38.3947 31.3386 38.2267 28.9493 38.152C26.9706 38.0773 25.9813 37.984 25.9813 37.872C25.9813 37.8347 26.0186 37.7787 26.0933 37.704C27.848 37.144 29.528 36.864 31.1333 36.864C31.88 36.864 32.7013 36.92 33.5973 37.032C34.4933 37.144 35.464 37.3307 36.5093 37.592C40.4293 38.5253 43.1733 40.4293 44.7413 43.304C45.1146 42.408 45.3013 41.4933 45.3013 40.56C45.3013 39.0293 44.8533 37.7413 43.9573 36.696C43.0986 35.6507 41.9226 34.8667 40.4293 34.344C38.9733 33.8213 37.3493 33.56 35.5573 33.56C29.92 33.56 24.5066 35.3707 19.3173 38.992C14.5013 42.352 10.6933 46.6827 7.89331 51.984C5.83998 55.8293 4.81331 59.2827 4.81331 62.344C4.81331 67.272 7.29598 69.8667 12.2613 70.128C12.5226 70.1653 12.784 70.184 13.0453 70.184C13.3066 70.184 13.568 70.184 13.8293 70.184ZM34.8394 79.48C33.7194 79.48 32.7674 79.0133 31.9834 78.08C31.1994 77.1467 30.7887 76.1387 30.7514 75.056C30.8634 74.608 31.0314 74.384 31.2554 74.384C31.4794 74.384 31.61 74.664 31.6474 75.224C31.6847 75.8213 31.9834 76.4 32.5434 76.96C33.1034 77.52 33.6634 77.8 34.2234 77.8C37.3967 77.8 40.29 75.84 42.9034 71.92C43.6127 70.8747 44.4714 69.344 45.4794 67.328C46.5247 65.312 47.7007 62.8107 49.0074 59.824L52.0314 52.544C48.298 52.5067 46.4314 52.0587 46.4314 51.2C46.4314 50.8267 46.6367 50.4907 47.0474 50.192C47.346 49.968 47.626 49.856 47.8874 49.856C47.9247 49.856 48.3727 49.8747 49.2314 49.912C50.1274 49.912 51.434 49.9307 53.1514 49.968C56.81 41.8293 60.17 37.76 63.2314 37.76C64.426 37.76 65.602 38.32 66.7594 39.44C67.058 39.7387 67.2074 40.1307 67.2074 40.616C67.2074 41.7733 66.8714 42.352 66.1994 42.352C66.0127 42.352 65.826 42.2027 65.6394 41.904C65.49 41.6427 65.2474 41.4373 64.9114 41.288C64.5754 41.1013 64.258 41.008 63.9594 41.008C63.5487 41.008 63.194 41.0453 62.8954 41.12C62.5967 41.1573 62.186 41.3813 61.6634 41.792C61.1407 42.1653 60.6554 42.6507 60.2074 43.248C59.7594 43.808 59.4047 44.2933 59.1434 44.704C58.882 45.1147 58.5274 45.768 58.0794 46.664C57.6314 47.5227 57.0527 48.624 56.3434 49.968H57.0154C61.0847 49.968 63.7914 49.912 65.1354 49.8C65.2847 49.8373 65.3594 49.912 65.3594 50.024C65.3594 50.3227 64.034 50.7333 61.3834 51.256C60.338 51.4053 59.3114 51.5733 58.3034 51.76C57.2954 51.9467 56.2687 52.1333 55.2234 52.32C54.738 53.3653 54.1407 54.616 53.4314 56.072C52.722 57.4907 51.9194 59.0773 51.0234 60.832C49.2687 64.1173 47.8314 66.7307 46.7114 68.672C45.5914 70.6133 44.8074 71.9013 44.3594 72.536C41.1114 77.1653 37.938 79.48 34.8394 79.48ZM70.2874 48.736C69.6527 48.736 69.0927 48.5307 68.6074 48.12C68.1594 47.7093 67.9354 47.2427 67.9354 46.72C67.9354 45.6747 68.6447 45.152 70.0634 45.152C70.586 45.152 71.1087 45.3387 71.6314 45.712C72.154 46.048 72.4154 46.4773 72.4154 47C72.4154 47.448 72.1727 47.8587 71.6874 48.232C71.202 48.568 70.7354 48.736 70.2874 48.736ZM59.9274 68.616C59.106 68.616 58.4154 68.3547 57.8554 67.832C57.3327 67.272 57.0714 66.3013 57.0714 64.92C57.0714 64.7333 57.0714 64.5653 57.0714 64.416C57.1087 64.2293 57.146 64.0613 57.1834 63.912C57.5194 61.896 58.6394 59.3573 60.5434 56.296C62.634 52.8987 64.3514 51.1813 65.6954 51.144C66.0314 51.144 66.442 51.2933 66.9274 51.592C67.4127 51.8533 67.6554 52.152 67.6554 52.488C67.6554 52.488 66.2367 54.3173 63.3994 57.976C60.5994 61.5973 59.1994 64.1733 59.1994 65.704C59.1994 66.8987 59.666 67.496 60.5994 67.496C61.234 67.496 61.9807 67.2533 62.8394 66.768C63.7354 66.2827 64.5754 65.76 65.3594 65.2C66.1434 64.64 66.666 64.248 66.9274 64.024C67.9354 63.1653 68.7567 62.4373 69.3914 61.84C70.0634 61.2053 70.6794 60.5333 71.2394 59.824C71.6127 59.3387 71.93 59.0027 72.1914 58.816C72.49 58.6293 72.6767 58.536 72.7514 58.536C72.9007 58.536 72.9754 58.648 72.9754 58.872C72.9754 59.0587 72.7514 59.432 72.3034 59.992C71.8927 60.552 71.314 61.2053 70.5674 61.952C69.6714 62.848 68.682 63.8187 67.5994 64.864C66.5167 65.9093 65.3407 66.8053 64.0714 67.552C62.802 68.2613 61.4207 68.616 59.9274 68.616Z" fill="white"/>
</svg>
